<?xml version="1.0" encoding="utf-8"?>
<!-- Generator: Adobe Illustrator 27.2.0, SVG Export Plug-In . SVG Version: 6.00 Build 0)  -->
<svg version="1.1" id="圖層_1" xmlns="http://www.w3.org/2000/svg" xmlns:xlink="http://www.w3.org/1999/xlink" x="0px" y="0px"
	 viewBox="0 0 32 32" style="enable-background:new 0 0 32 32;" xml:space="preserve">
<style type="text/css">
	.st0{fill:#D70C18;}
</style>
<g>
	<path class="st0" d="M16.94,1.15c-4.97,0-8.34,4.14-8.38,8.04c-0.03,3.32,1.43,6.57,5.06,8.11c2.18,0.94,6.02,1.62,5.96,5.07
		c-0.06,2.74-3.28,4.79-6.32,4.79H8.04V12.09H3.73v-7.2h4.32V1.15H0v14.69h4.32v15.01h10.04c4.85,0,9.13-3.9,9.17-8.74
		c0.03-4.28-3.37-6.49-7.51-7.85c-2.67-0.87-3.76-2.83-3.69-4.99c0.07-2.2,2.09-4.39,4.55-4.38h11.48v7H32V1.15H16.94z"/>
	<path class="st0" d="M24.94,10c-1.68-1.09-3.96-2.05-5.99-2.18l-0.01,0c-0.07,0-0.14-0.01-0.21-0.01c-1.02,0-1.84,0.83-1.84,1.84
		c0,0.59,0.28,1.11,0.7,1.45c0.18,0.17,0.67,0.41,1.42,0.61c4.49,1.18,8.15,5.39,8.4,9.29c0.42,6.54-4.12,9.82-4.12,9.82h4.64
		c2.05-1.99,3.41-5.35,3.32-9.63C31.19,16.9,28.73,12.46,24.94,10"/>
</g>
</svg>
