<?xml version="1.0" encoding="utf-8"?>
<!-- Generator: Adobe Illustrator 27.2.0, SVG Export Plug-In . SVG Version: 6.00 Build 0)  -->
<svg version="1.1" id="圖層_1" xmlns="http://www.w3.org/2000/svg" xmlns:xlink="http://www.w3.org/1999/xlink" x="0px" y="0px"
	 viewBox="0 0 32 32" style="enable-background:new 0 0 32 32;" xml:space="preserve">
<style type="text/css">
	.st0{fill:#0B8F7A;}
</style>
<g>
	<path class="st0" d="M30.93,10.2c-1.13-2.74-3.12-5.39-5.6-7.09C20.79-0.33,13.34-0.8,8.37,2.05C2.94,5-0.31,10.6,0.02,16.79
		C0.36,23.35,4.7,28.95,10.89,31c5.53,1.85,11.72,0.47,15.89-3.31C31.62,23.41,33.31,16.26,30.93,10.2z M22.62,11.43v0.06
		l-0.14-0.43L22.62,11.43z M14.47,13.68c0.06-0.17,0.2-0.17,0.37-0.27C14.77,13.54,14.63,13.64,14.47,13.68z M15.09,13.54l0.27-0.2
		l0.04,0.1c0.1-0.1,0.43-0.04,0.33-0.3l0.17,0.06c-0.17,0.13-0.5,0.23-0.53,0.43c-0.29-0.03-0.5,0.26-0.73,0.26
		C14.66,13.64,15.06,13.81,15.09,13.54z M26.35,17.29l0.27,0.13l0.14,0.17L26.35,17.29z M30.23,18.31c-0.26-0.1-0.52,0.1-0.69-0.23
		c-1.1-0.46-2.09-1.13-3.05-1.72l-0.03,0.03c0.76,0.73,1.82,1.26,2.69,1.75c0.29,0.17,0.73,0.27,0.89,0.56
		c-0.1,0.03-0.27,0.03-0.3,0.17l-0.23-0.13c-0.06,0.03,0,0.1-0.03,0.13l0.16,0.13c-1.12-0.46-2.38-1.16-3.4-1.99
		c-0.5-0.33-0.99-0.6-1.49-0.96c-0.07,0-0.17-0.03-0.2,0.06c0.56,0.43,1.16,0.7,1.72,1.09C25.23,16.73,24,16,23.18,15
		c-0.36-0.36-0.89-1.12-1.52-1c-0.24,0.13-0.6,0.1-0.87,0.23c-0.2,0-0.37-0.23-0.56-0.06c-0.17,0.36-0.7,0.06-0.8,0.46
		c-0.32,0.13-0.93,0.03-1.02,0.43l0.03,0.16c-0.66,0.3-1.55,0.2-2.01,0.83c-0.14,0.13-0.4-0.03-0.53,0.13
		c0.04-0.06-0.04-0.13-0.1-0.13c-0.17-0.07-0.27,0.1-0.4,0.13c-0.1-0.16,0.13-0.2,0.1-0.3c-0.3-0.13-0.43,0.26-0.66,0.4
		c0.03-0.26,0.33-0.3,0.42-0.53c-0.17-0.1-0.29,0.07-0.42,0.1c0.06-0.03,0.19-0.26,0-0.26c0.17-0.27,0.52-0.17,0.63-0.46h-0.27
		c0.27-0.2,0.57-0.43,0.8-0.63c-0.1,0-0.3-0.26-0.47-0.03c0-0.03,0.07-0.07,0.04-0.1c-0.13-0.14-0.3,0.1-0.47,0.1
		c0,0.03,0.04-0.1-0.06-0.13h-0.1c0.1-0.07,0.24-0.23,0.37-0.33l-0.06-0.06c0.5-0.3,0.99-0.63,1.49-0.86l0.1-0.1
		c-0.08-0.1-0.21-0.13-0.33-0.11c-0.03,0.06-0.08,0.1-0.2,0.11c0.05-0.06,0.13-0.09,0.2-0.11c0.07-0.15-0.05-0.4,0.26-0.45
		c0.07-0.37,0.4-0.63,0.67-0.79c-0.43-0.4-0.6-1.13-1.09-1.36c-0.04-0.3-0.33,0-0.37-0.3c-0.6-0.03-1.29,0.27-1.68-0.26
		c-0.3-0.1-0.7-0.07-0.99-0.03c-0.27,0.23-0.37,0.56-0.53,0.83c-0.27,0.2-0.4,0.53-0.6,0.83c-0.29,0.4-0.66,0.89-1.2,1.06v-0.06
		c-0.36,0.5-1.16,0.3-1.62,0.83L9.3,13.02c-0.17-0.03-0.29,0.07-0.33,0.2v0.07c-0.23-0.07-0.4,0.2-0.5,0.33
		C7.91,14.2,6.98,14.2,6.39,14.7c-0.01,0.01-0.01,0.01-0.02,0.01c-0.01,0.01-0.01,0.01,0,0c0.01-0.01,0.03-0.02,0.02-0.04
		c-1.1,0.23-1.63,1.06-2.36,1.85c-0.19,0.33-0.52,0.53-0.79,0.79c0.06,0.27-0.33,0.37-0.46,0.5c0.13-0.23,0.43-0.43,0.46-0.69
		c-0.27,0.13-0.33,0.43-0.62,0.56c-0.17-0.13,0.17-0.23,0.06-0.37l-0.4,0.3l0.36-0.5c-0.19,0.03-0.4,0.36-0.62,0.4
		c-0.06,0.1-0.17,0.1-0.29,0.1v-0.03c0.13-0.1,0.36-0.33,0.56-0.53c-0.24-0.13-0.5,0.17-0.67,0.14c-0.06-0.04-0.03-0.2-0.19-0.14
		c0.17-0.13,0.33-0.23,0.4-0.43c-0.14-0.04-0.3,0.06-0.44,0.13c0.04-0.17,0.37-0.27,0.27-0.53c-0.42-0.07-0.36,0.36-0.73,0.46
		c0.37-0.5,0.9-0.8,1.26-1.33l-0.04-0.03c0.7-0.76,1.56-1.22,2.42-1.72c0.7-0.4,1.62-0.6,2.12-1.26c0.19-0.27,0.4-0.5,0.52-0.76
		c0.1,0.03,0.14-0.07,0.17-0.13c0.5-0.3,1.03-0.5,1.63-0.5c0.27-0.27,0.76-0.1,0.96-0.46c0.7-0.83,0.97-1.86,1.56-2.68
		c0.19-0.27,0.42-0.69,0.83-0.8c0.99,0.1,1.95,0.27,2.88,0.53c0.56-0.16,1.29-0.6,1.86-0.16c0.39,0.6,1.49,0.79,1.19,1.62
		c0.57,0.7,1.2,1.49,1.92,2.02c0.17,0.04,0.23-0.06,0.3-0.16l-0.2-0.1c0.23-0.2,0.79,0.13,1.16-0.07c0.23,0,0.56,0.07,0.73,0.3
		c0.17,0.27,0.2,0.6,0.43,0.86l0.13-0.07c0.17,0.3,0.24,0.56,0.43,0.83c1.2,0.4,1.76,1.82,2.81,2.42c1.3,0.96,2.66,1.92,4.17,2.48
		c-0.06,0.2,0.17,0.2,0.27,0.26v0.03c-0.2-0.1-0.46-0.2-0.66-0.13c0.2,0.3,0.69,0.17,0.79,0.49h-0.53
		C30.03,18.28,30.16,18.28,30.23,18.31z"/>
	<path class="st0" d="M22.68,11.92c0.06,0.1,0.03,0.2,0.17,0.23C22.81,12.05,22.75,11.95,22.68,11.92z"/>
	<path class="st0" d="M7.05,12.38c0.13-0.1,0.23-0.26,0.27-0.43C7.22,12.12,6.95,12.18,7.05,12.38z"/>
	<polygon class="st0" points="10.23,12.45 10.33,12.42 10.23,12.42 	"/>
	<path class="st0" d="M9.33,12.78c0.1,0.03,0.14-0.06,0.2-0.13C9.47,12.58,9.33,12.68,9.33,12.78z"/>
	<path class="st0" d="M7.91,13.88c0.04-0.07,0.17,0.03,0.1-0.07C7.97,13.81,7.95,13.84,7.91,13.88z"/>
	<polygon class="st0" points="15.46,14.07 15.56,14.07 15.56,14.07 15.56,13.97 15.46,13.97 	"/>
	<path class="st0" d="M15.13,14.34h0.1c0.04-0.07,0.1-0.07,0.1-0.14c-0.04,0-0.04-0.03-0.06-0.03C15.19,14.2,15.1,14.24,15.13,14.34
		z"/>
	<path class="st0" d="M15.96,14.84c-0.1-0.03-0.14,0.06-0.24,0.03c0,0.07-0.13,0.1-0.03,0.14C15.76,14.97,15.92,14.97,15.96,14.84z"
		/>
	<path class="st0" d="M15.62,15.27c0.14-0.1,0.37-0.1,0.4-0.23c0-0.03-0.1,0-0.14-0.03C15.8,15.07,15.59,15.13,15.62,15.27z"/>
	<path class="st0" d="M23.97,15.36c-0.14-0.06-0.2-0.23-0.3-0.33c0.14,0.3,0.27,0.53,0.5,0.76l0.1-0.1
		C24.17,15.6,24.1,15.43,23.97,15.36z"/>
	<path class="st0" d="M28.74,17.12l-0.33-0.1C28.5,17.06,28.64,17.19,28.74,17.12z"/>
	<path class="st0" d="M29.67,17.62c-0.23-0.17-0.53-0.33-0.83-0.36C29.04,17.45,29.41,17.45,29.67,17.62z"/>
	<polygon class="st0" points="29.6,18.51 29.57,18.58 29.7,18.58 	"/>
	<path class="st0" d="M29.3,18.68v0.06h0.14C29.4,18.71,29.34,18.71,29.3,18.68z"/>
</g>
</svg>
