<?xml version="1.0" encoding="utf-8"?>
<!-- Generator: Adobe Illustrator 27.2.0, SVG Export Plug-In . SVG Version: 6.00 Build 0)  -->
<svg version="1.1" id="圖層_1" xmlns="http://www.w3.org/2000/svg" xmlns:xlink="http://www.w3.org/1999/xlink" x="0px" y="0px"
	 viewBox="0 0 32 32" style="enable-background:new 0 0 32 32;" xml:space="preserve">
<style type="text/css">
	.st0{fill:#C32A05;}
</style>
<g>
	<path id="path2991" class="st0" d="M16.99,5.04c0-0.6-0.43-1.03-0.94-1.03c-0.6,0-1.03,0.43-1.03,1.03v6.02
		c0,3.95-4.03,4.04-4.03,4.04V4.96c0-2.75,2.32-4.98,5.06-4.98s4.98,2.23,4.98,4.98h-4.03V5.04z"/>
	<path id="path2993" class="st0" d="M16.04,10.03h9.78c0,0-0.09-4.04-4.03-4.04h-5.75C16.04,5.99,16.04,10.03,16.04,10.03z"/>
	<path id="path2995" class="st0" d="M4.98,15.01c-0.51,0-0.94,0.52-0.94,1.03s0.43,1.03,0.94,1.03h6.09c3.95,0,4.03,4.04,4.03,4.04
		H4.98C2.23,21.11,0,18.79,0,16.04s2.23-4.98,4.98-4.98v4.04L4.98,15.01z"/>
	<path id="path2997" class="st0" d="M10.04,16.04v-9.8c0,0-4.03,0.09-4.03,4.04v5.76H10.04z"/>
	<path id="path2999" class="st0" d="M27.02,17.07c0.6,0,1.03-0.43,1.03-1.03c0-0.52-0.43-0.95-1.03-0.95l-6.01-0.09
		c-3.95,0-4.03-3.95-4.03-3.95h10.04c2.75,0,4.98,2.23,4.98,4.98s-2.23,4.98-4.98,4.98V17.07z"/>
	<path id="path3001" class="st0" d="M22.05,16.04v9.8c0,0,3.95,0,3.95-4.04v-5.76C25.99,16.04,22.05,16.04,22.05,16.04z"/>
	<path id="path3003" class="st0" d="M15.01,27.04c0,0.52,0.43,0.95,1.03,0.95c0.51,0,0.94-0.43,0.94-0.95v-6.1
		c0-3.95,4.03-4.04,4.03-4.04v10.14c0,2.75-2.23,4.98-4.98,4.98c-2.83,0-5.06-2.23-5.06-4.98H15.01z"/>
	<path id="path3005" class="st0" d="M16.04,21.97H6.26c0,0,0,4.04,3.95,4.04h5.83V21.97z"/>
</g>
</svg>
