<?xml version="1.0" encoding="utf-8"?>
<!-- Generator: Adobe Illustrator 27.2.0, SVG Export Plug-In . SVG Version: 6.00 Build 0)  -->
<svg version="1.1" id="圖層_1" xmlns="http://www.w3.org/2000/svg" xmlns:xlink="http://www.w3.org/1999/xlink" x="0px" y="0px"
	 viewBox="0 0 32 32" style="enable-background:new 0 0 32 32;" xml:space="preserve">
<style type="text/css">
	.st0{fill:#008F43;}
	.st1{fill:url(#Shape_00000005260307871554990250000015624873515555673478_);}
	.st2{fill:url(#Shape_00000165915854420189472790000004457842820142088583_);}
	.st3{fill:#009043;}
</style>
<g>
	<path id="Shape_00000148654640767861113550000002166167306558348433_" class="st0" d="M30.56,14.71c-0.52-0.5-0.86-1.17-0.95-1.89
		c-0.16-1.7-1.31-3.15-2.94-3.69c-0.1-0.03-0.2-0.07-0.3-0.12c-0.57-0.25-1.04-0.67-1.35-1.21c-0.87-1.59-2.63-2.48-4.43-2.25
		c-0.72,0.09-1.46-0.07-2.08-0.46c-1.5-1.05-3.51-1.05-5.01,0c-0.62,0.38-1.35,0.54-2.07,0.46C9.62,5.33,7.86,6.22,6.99,7.8
		C6.62,8.43,6.03,8.9,5.34,9.13c-1.62,0.55-2.77,1.99-2.94,3.69c-0.09,0.72-0.43,1.39-0.95,1.89c-0.93,0.9-1.45,2.13-1.44,3.42v0.06
		c0.03,2.62,2.17,4.73,4.79,4.72h6.89c0.66,0.01,1.18,0.54,1.18,1.19v0.28c0,0.63-0.47,1.16-1.09,1.24L6.2,26.59
		c-0.2,0.02-0.35,0.17-0.37,0.37v0.69h20.35v-0.69c-0.02-0.2-0.17-0.35-0.37-0.37l-5.6-0.96c-0.62-0.08-1.09-0.62-1.09-1.24v-0.28
		c0-0.65,0.53-1.18,1.18-1.19h6.9c2.65,0,4.79-2.14,4.79-4.78C32.01,16.85,31.49,15.61,30.56,14.71z"/>
	
		<linearGradient id="Shape_00000132076397250882085810000007119986142732691084_" gradientUnits="userSpaceOnUse" x1="1.5463" y1="32.7039" x2="1.059" y2="32.4742" gradientTransform="matrix(40.7689 0 0 -21.4814 -39.7691 709.8868)">
		<stop  offset="0" style="stop-color:#6FBA2C"/>
		<stop  offset="1" style="stop-color:#009043"/>
	</linearGradient>
	
		<path id="Shape_00000130619630371270267390000010056185236086030497_" style="fill:url(#Shape_00000132076397250882085810000007119986142732691084_);" d="
		M9.82,11.48c5.92-2.65,11.93-3.41,16.54-2.46c-0.57-0.25-1.04-0.67-1.35-1.21c-0.87-1.59-2.63-2.48-4.43-2.25
		c-0.72,0.09-1.46-0.07-2.08-0.46c-1.5-1.05-3.51-1.05-5.01,0c-0.62,0.38-1.35,0.54-2.07,0.46C9.62,5.33,7.86,6.22,6.99,7.8
		C6.62,8.43,6.03,8.9,5.34,9.13c-1.62,0.55-2.77,1.99-2.94,3.69c-0.09,0.72-0.43,1.39-0.95,1.89c-0.93,0.9-1.45,2.13-1.44,3.42v0.06
		C2.81,15.36,6.15,13.08,9.82,11.48z"/>
	
		<linearGradient id="Shape_00000170990063707336658890000010244572887993986719_" gradientUnits="userSpaceOnUse" x1="1.7647" y1="32.8548" x2="1.1935" y2="32.6142" gradientTransform="matrix(45.6105 0 0 -22.0608 -44.6103 735.6702)">
		<stop  offset="0" style="stop-color:#45B035"/>
		<stop  offset="1" style="stop-color:#009043"/>
	</linearGradient>
	
		<path id="Shape_00000169538787196208188930000015649629385442557327_" style="fill:url(#Shape_00000170990063707336658890000010244572887993986719_);" d="
		M15.04,14.94c5.08-2.25,10.19-3.15,14.45-2.77c-0.36-1.43-1.42-2.57-2.82-3.05l0,0c-0.1-0.03-0.2-0.07-0.3-0.12
		c-4.62-0.94-10.63-0.18-16.55,2.47c-3.67,1.6-7,3.88-9.81,6.72c0.02,2.37,1.78,4.36,4.13,4.69C7.13,19.46,10.86,16.75,15.04,14.94z
		"/>
	<path id="Shape_00000155112416741657132340000013225205330710708126_" class="st3" d="M30.56,14.71c-0.52-0.5-0.86-1.17-0.95-1.89
		c-0.02-0.22-0.06-0.43-0.11-0.65c-4.26-0.38-9.39,0.51-14.45,2.77c-4.18,1.8-7.91,4.51-10.91,7.93c0.22,0.03,0.44,0.05,0.66,0.04
		h6.89c0.66,0.01,1.18,0.54,1.18,1.19v0.28c0,0.63-0.47,1.16-1.09,1.24L6.2,26.59c-0.2,0.02-0.35,0.17-0.37,0.37v0.69h20.35v-0.69
		c-0.02-0.2-0.17-0.35-0.37-0.37l-5.6-0.96c-0.62-0.08-1.09-0.62-1.09-1.24v-0.28c0-0.65,0.53-1.18,1.18-1.19h6.9
		c2.65,0,4.79-2.14,4.79-4.78C32.01,16.85,31.49,15.61,30.56,14.71L30.56,14.71z"/>
</g>
</svg>
