<svg width="80" height="85" viewBox="0 0 80 85" fill="none" xmlns="http://www.w3.org/2000/svg">
<g clip-path="url(#clip0_936_280)">
<path d="M67.4147 8.05588L68.2911 1.8111C68.367 1.27174 67.9203 0.875646 67.381 1.01049L45.9414 6.20183C45.5622 6.29453 45.2588 6.6232 45.1998 7.00244L43.6997 17.6464C43.6491 18.0256 43.8598 18.3543 44.2138 18.447L64.1869 23.6636C64.6926 23.7985 65.2488 23.4024 65.3247 22.863L66.2095 16.5845C66.2685 16.1968 66.041 15.8597 65.6702 15.7755L50.3153 12.4466L50.349 12.1854L66.6393 8.85649C67.0354 8.77222 67.3557 8.43512 67.4062 8.04745L67.4147 8.05588Z" fill="#00C751"/>
<path d="M14.3298 8.86492L29.6847 12.1938L29.651 12.455L13.3607 15.7839C12.9646 15.8682 12.6443 16.2053 12.5938 16.5929L11.7004 22.8714C11.6246 23.4108 12.0797 23.8069 12.619 23.672L34.0586 18.4554C34.4378 18.3627 34.7412 18.034 34.7918 17.6548L36.2919 7.01087C36.3425 6.63163 36.1318 6.30296 35.7778 6.21026L15.8046 1.01049C15.299 0.875646 14.7428 1.27174 14.6669 1.8111L13.7905 8.05588C13.7315 8.44355 13.959 8.78065 14.3298 8.86492Z" fill="#00C751"/>
<path d="M57.7736 28.3409C52.8435 32.6979 43.9441 35.7908 36.0391 35.7908C28.1341 35.7908 20.2122 32.6979 16.6558 28.3409C16.4283 28.0628 15.9479 28.1639 15.7625 28.5263L13.2343 33.4396L13.0826 33.7429C12.6275 34.6194 12.6949 35.9594 13.209 36.583C16.9086 41.117 24.9401 44.9852 34.5895 44.9852C44.3823 44.9852 53.779 40.999 58.8523 36.3808C59.5434 35.7571 60.1586 34.9902 59.8046 33.5913C59.4844 32.3356 58.8776 29.8073 58.6079 28.5348C58.5321 28.1724 58.0854 28.0712 57.7736 28.3493V28.3409Z" fill="#00C751"/>
</g>
<defs>
<clipPath id="clip0_936_280">
<rect width="56.5991" height="44" fill="white" transform="translate(11.7004 0.985229)"/>
</clipPath>
</defs>
</svg>
