<svg width="80" height="85" viewBox="0 0 80 85" fill="none" xmlns="http://www.w3.org/2000/svg">
<g clip-path="url(#clip0_936_302)">
<path d="M66.4031 38.9309H61.2713C60.8527 38.9309 60.5348 38.5666 60.5969 38.148L62.186 26.8302C62.2325 26.4891 62.5193 26.241 62.8604 26.241H67.9922C68.4108 26.241 68.7287 26.6054 68.6666 27.024L67.0775 38.3418C67.031 38.6829 66.7442 38.9309 66.4031 38.9309Z" fill="#00C751"/>
<path d="M76.4496 38.9309H71.3178C70.8992 38.9309 70.5814 38.5666 70.6434 38.148L72.2325 26.8302C72.279 26.4891 72.5659 26.241 72.9069 26.241H78.0387C78.4573 26.241 78.7752 26.6054 78.7131 27.024L77.124 38.3418C77.0775 38.6829 76.7907 38.9309 76.4496 38.9309Z" fill="#00C751"/>
<path d="M7.10076 38.9309H1.96122C1.54262 38.9309 1.22479 38.5666 1.28681 38.148L2.87595 26.8302C2.92246 26.4891 3.20929 26.241 3.55037 26.241H8.68216C9.10076 26.241 9.41859 26.6054 9.35657 27.024L7.76743 38.3418C7.72091 38.6829 7.43409 38.9309 7.09301 38.9309H7.10076Z" fill="#00C751"/>
<path d="M17.1395 38.9309H12.0077C11.5891 38.9309 11.2713 38.5666 11.3333 38.148L12.9225 26.8302C12.969 26.4891 13.2558 26.241 13.5969 26.241H18.7287C19.1473 26.241 19.4651 26.6054 19.4031 27.024L17.8139 38.3418C17.7674 38.6829 17.4806 38.9309 17.1395 38.9309Z" fill="#00C751"/>
<path d="M38.1085 44.9852C33.4031 44.9852 29.9922 44.0007 27.8682 42.0395C25.7442 40.0705 24.9302 37.303 25.4341 33.7371L25.5814 33.0007C26.093 29.3805 27.6899 26.5743 30.3798 24.5743C33.0698 22.5743 36.7597 21.5743 41.4419 21.5743C46.124 21.5743 49.5271 22.5743 51.6434 24.5743C53.7597 26.5743 54.5659 29.3805 54.062 33.0007L53.9147 33.7371C53.4108 37.303 51.8294 40.0705 49.1628 42.0395C46.4961 44.0084 42.8139 44.9852 38.1085 44.9852ZM38.8139 39.9387C40.4341 39.9387 41.7364 39.4503 42.7209 38.4658C43.7054 37.4813 44.3256 36.086 44.5814 34.2798L44.8837 32.4891C45.155 30.5821 44.9302 29.1325 44.2248 28.148C43.5194 27.1557 42.3488 26.6596 40.7287 26.6596C39.1085 26.6596 37.8062 27.1557 36.8217 28.148C35.8372 29.1402 35.2093 30.5898 34.938 32.4891L34.6356 34.2798C34.3798 36.0937 34.6124 37.4891 35.3178 38.4658C36.031 39.4503 37.1938 39.9387 38.8139 39.9387Z" fill="#00C751"/>
<path d="M68.0465 7.4891L68.8527 1.74492C68.9225 1.24879 68.5116 0.88445 68.0155 1.00848L48.2946 5.78368C47.9457 5.86895 47.6667 6.17127 47.6124 6.52011L46.2326 16.3108C46.186 16.6596 46.3798 16.962 46.7054 17.0472L65.0775 21.8457C65.5426 21.9697 66.0543 21.6054 66.124 21.1093L66.938 15.3341C66.9922 14.9775 66.7829 14.6674 66.4419 14.5899L52.3178 11.5279L52.3488 11.2876L67.3333 8.22554C67.6977 8.14802 67.9923 7.83794 68.0388 7.48135L68.0465 7.4891Z" fill="#00C751"/>
<path d="M19.2171 8.23329L33.3411 11.2953L33.3101 11.5356L18.3256 14.5976C17.9613 14.6751 17.6667 14.9852 17.6202 15.3418L16.8062 21.117C16.7364 21.6131 17.1551 21.9775 17.6512 21.8534L37.3721 17.055C37.7209 16.9697 38 16.6674 38.0465 16.3186L39.4264 6.52786C39.4729 6.17902 39.2791 5.8767 38.9535 5.79143L20.5814 1.00848C20.1163 0.88445 19.6047 1.24879 19.5349 1.74492L18.7287 7.4891C18.6744 7.84569 18.8837 8.15577 19.2248 8.23329H19.2171Z" fill="#00C751"/>
</g>
<defs>
<clipPath id="clip0_936_302">
<rect width="77.4419" height="44" fill="white" transform="translate(1.27905 0.985229)"/>
</clipPath>
</defs>
</svg>
