<svg width="80" height="85" viewBox="0 0 80 85" fill="none" xmlns="http://www.w3.org/2000/svg">
<g clip-path="url(#clip0_936_272)">
<path d="M66.463 7.93872L67.3249 1.79745C67.3995 1.26703 66.9603 0.877502 66.4298 1.01011L45.3456 6.1154C44.9727 6.20657 44.6743 6.52979 44.6163 6.90274L43.1411 17.3703C43.0914 17.7432 43.2986 18.0664 43.6466 18.1576L63.2888 23.2877C63.786 23.4204 64.333 23.0308 64.4076 22.5004L65.2778 16.326C65.3358 15.9447 65.1121 15.6132 64.7474 15.5304L49.647 12.2567L49.6802 11.9997L65.7005 8.72606C66.09 8.64318 66.405 8.31167 66.4547 7.93043L66.463 7.93872Z" fill="#00C751"/>
<path d="M28.8875 18.875C33.1597 14.8925 33.8171 8.65403 30.3558 4.94097C26.8945 1.2279 20.6253 1.44632 16.3531 5.42882C12.0809 9.41132 11.4235 15.6498 14.8848 19.3629C18.3461 23.0759 24.6153 22.8575 28.8875 18.875Z" fill="#00C751"/>
<path d="M56.9734 28.6168C52.1251 32.9016 43.3731 35.9432 35.5992 35.9432C27.8252 35.9432 20.0347 32.9016 16.5372 28.6168C16.3134 28.3433 15.841 28.4427 15.6587 28.7991L13.1724 33.6309L13.0232 33.9293C12.5756 34.7912 12.6419 36.109 13.1475 36.7223C16.7858 41.1811 24.6841 44.9852 34.1737 44.9852C43.8041 44.9852 53.045 41.0651 58.0343 36.5234C58.7056 35.9101 59.3189 35.1559 58.9708 33.7801C58.6559 32.5452 58.0592 30.0589 57.7939 28.8074C57.7194 28.451 57.2801 28.3516 56.9734 28.6251V28.6168Z" fill="#00C751"/>
</g>
<defs>
<clipPath id="clip0_936_272">
<rect width="54.6664" height="44" fill="white" transform="translate(12.6668 0.985229)"/>
</clipPath>
</defs>
</svg>
