<svg width="240" height="231" viewBox="0 0 240 231" fill="none" xmlns="http://www.w3.org/2000/svg">
<path d="M37.4165 173.977H27.0701C26.4305 173.977 25.8661 174.456 25.7721 175.107L21.3513 205.318C20.3731 205.643 19.2256 205.643 18.3979 205.643C14.0524 205.643 13.1682 203.595 13.1682 201.048C13.1682 200.015 13.3375 198.904 13.5821 197.411L16.7612 175.202C16.8553 174.571 16.3662 173.977 15.7266 173.977H5.38015C4.74055 173.977 4.1762 174.456 4.08214 175.107L0.319799 201.125C0.150494 202.082 0 203.652 0 204.916C0 210.621 3.79997 214.01 9.27418 214.01C14.7484 214.01 19.2256 211.119 20.9751 207.845L20.4107 212.019C20.2979 212.823 20.9186 213.531 21.7087 213.531H31.773C32.4126 213.531 32.977 213.052 33.071 212.402L38.4512 175.183C38.5452 174.532 38.0561 173.958 37.4165 173.958V173.977ZM76.9776 166.989L77.8617 161.035C77.9558 160.384 77.4667 159.81 76.8271 159.81H42.6086C41.969 159.81 41.4046 160.288 41.3105 160.939L40.4264 166.893C40.3323 167.544 40.8214 168.119 41.461 168.119H51.2996L44.9788 212.019C44.866 212.823 45.4679 213.531 46.2768 213.531H57.7144C58.354 213.531 58.9183 213.052 59.0124 212.402L65.3895 168.119H75.6984C76.338 168.119 76.9023 167.64 76.9964 166.989H76.9776ZM108.111 173.977H97.7269C97.0873 173.977 96.5418 174.437 96.4477 175.087L96.1467 176.887C94.924 174.953 92.2339 173.498 88.9418 173.498C77.0716 173.498 70.939 183.224 70.939 199.689C70.939 209.109 75.1528 214.01 81.7746 214.01C86.6092 214.01 89.9765 210.621 91.6884 207.845L91.0676 212.325C90.9735 212.957 91.4626 213.531 92.1022 213.531H102.467C103.107 213.531 103.671 213.052 103.765 212.402L109.146 175.183C109.24 174.532 108.751 173.958 108.111 173.958V173.977ZM92.0458 205.318C91.1428 205.548 90.1646 205.643 89.4309 205.643C85.4993 205.643 83.6557 202.216 83.5052 198.732C83.3359 194.941 83.8251 190.404 85.1795 186.881C86.327 183.913 88.9795 181.903 92.1963 181.903C92.9299 181.903 94.0022 181.98 95.3943 182.133L92.0458 205.318ZM150.738 173.977H140.354C139.715 173.977 139.169 174.437 139.075 175.087L138.774 176.887C137.551 174.953 134.88 173.498 131.569 173.498C119.699 173.498 113.566 183.224 113.566 199.689C113.566 209.109 117.78 214.01 124.402 214.01C129.237 214.01 132.604 210.621 134.316 207.845L133.149 215.886C132.529 220.768 128.616 222.032 123.649 222.032C121.411 222.032 118.909 221.744 116.181 221.036C115.504 220.864 114.808 221.247 114.601 221.936L112.889 227.66C112.682 228.369 113.077 229.115 113.773 229.326C116.689 230.207 120.32 230.819 124.929 230.819C138.473 230.819 144.587 224.75 145.828 216.211L151.754 175.164C151.848 174.513 151.359 173.939 150.72 173.939L150.738 173.977ZM134.673 205.318C133.77 205.548 132.792 205.643 132.058 205.643C128.127 205.643 126.283 202.216 126.133 198.732C125.963 194.941 126.452 190.404 127.807 186.881C128.954 183.913 131.607 181.903 134.824 181.903C135.557 181.903 136.63 181.98 138.022 182.133L134.673 205.318ZM197.523 160.135C193.874 159.561 189.622 159.254 185.559 159.254C165.186 159.254 158.846 169.612 157.078 193.161C156.1 206.256 161.856 214.01 169.475 214.01C175.702 214.01 179.614 210.41 180.969 207.845L180.31 212.306C180.216 212.957 180.705 213.531 181.345 213.531H192.312C192.952 213.531 193.516 213.052 193.61 212.402L197.862 182.937C197.956 182.286 197.467 181.712 196.827 181.712H181.025C180.386 181.712 179.84 182.19 179.727 182.841L179.088 187.034C178.994 187.589 179.426 188.106 179.991 188.106H183.885L181.477 204.571C180.404 204.973 178.41 205.05 177.338 205.05C172.598 205.05 171.149 201.718 171.601 193.582C172.729 173.479 177.658 168.176 187.797 168.176C189.886 168.176 191.898 168.291 194.814 168.655C195.548 168.75 196.244 168.291 196.488 167.583L198.483 161.667C198.727 160.977 198.276 160.212 197.561 160.116L197.523 160.135ZM224.687 173.498C210.127 173.498 202.678 182.841 202.678 199.057C202.678 208.955 207.832 214.01 218.066 214.01C232.626 214.01 240 204.667 240 188.451C240 178.553 234.921 173.498 224.687 173.498ZM219.608 205.624C216.824 205.624 215.846 203.327 215.846 199.287C215.846 187.647 218.799 181.884 223.051 181.884C225.91 181.884 226.813 184.181 226.813 188.221C226.813 199.861 223.86 205.624 219.608 205.624ZM163.718 67.9315C179.351 67.9315 193.798 55.0276 195.999 39.137C198.2 23.2273 187.308 10.3425 171.676 10.3425C156.043 10.3425 141.596 23.2464 139.395 39.137C137.194 55.0467 148.086 67.9315 163.718 67.9315ZM181.307 100.957C180.404 97.3386 178.711 90.0825 177.94 86.4449C177.714 85.4111 176.473 85.1239 175.589 85.9089C161.687 98.4107 136.611 107.275 114.319 107.275C92.027 107.275 69.7163 98.4107 59.6896 85.9089C59.05 85.1239 57.6956 85.3919 57.1688 86.4449L50.0392 100.536L49.6065 101.397C48.3273 103.905 48.5154 107.773 49.9451 109.553C60.3668 122.572 83.0161 133.657 110.218 133.657C137.42 133.657 164.302 122.227 178.617 108.96C180.555 107.16 182.304 104.978 181.289 100.957H181.307ZM50.2649 52.2515L91.8765 46.8143V46.8908L68.8509 61.3455C67.0074 62.5134 66.443 64.6768 67.647 65.9021L79.2914 77.6955C80.2508 78.672 82.1508 78.4996 83.3924 77.3318C89.6002 71.4159 105.346 56.4635 111.309 49.8584C113.886 47.0057 115.824 44.8997 116.952 41.5685C118.251 37.7011 119.379 31.6321 119.379 31.1151C119.379 28.2051 119.003 27.0946 117.291 25.429L92.2151 0.789065C91.2369 -0.168198 89.3181 0.0232551 88.0953 1.22941L75.8301 13.2909C74.3816 14.7077 74.3628 16.6988 75.7924 17.5986L95.225 29.8324L55.3817 27.4201C53.0679 27.3627 50.7917 29.1623 50.5283 31.2683L46.3145 49.1691C46.0511 51.2751 47.9135 52.711 50.2837 52.2515H50.2649Z" fill="#00C751"/>
</svg>
