<svg width="80" height="84" viewBox="0 0 80 84" fill="none" xmlns="http://www.w3.org/2000/svg">
<path d="M65.0657 13.827C64.3273 19.0653 59.4803 23.319 54.2358 23.319C48.9912 23.319 45.337 19.0716 46.0754 13.827C46.8138 8.58876 51.6608 4.33504 56.9054 4.33504C62.15 4.33504 65.8041 8.58245 65.0657 13.827Z" fill="#00C751"/>
<path d="M59.007 29.4219C59.2657 30.621 59.8338 33.013 60.1367 34.2058H60.1304C60.4712 35.5311 59.8842 36.2506 59.2342 36.8438C54.4314 41.2175 45.4128 44.9852 36.2868 44.9852C27.1609 44.9852 19.5622 41.3311 16.0659 37.0395C15.5862 36.4525 15.5231 35.1777 15.9523 34.3509L16.0974 34.0669L18.4893 29.4219C18.6661 29.0748 19.1205 28.9864 19.335 29.2452C22.6989 33.3664 30.1839 36.2884 37.6626 36.2884C45.1414 36.2884 53.5541 33.3664 58.2181 29.2452C58.5147 28.9864 58.9313 29.0811 59.007 29.4219Z" fill="#00C751"/>
<path d="M30.1334 16.3578L16.1731 18.1502H16.1795C15.3842 18.3016 14.7594 17.8283 14.8478 17.1341L16.2615 11.2331C16.3499 10.5389 17.1135 9.94566 17.8898 9.9646L31.2568 10.7598L24.7374 6.72697C24.2577 6.43035 24.2641 5.77399 24.75 5.30696L28.8649 1.33093C29.2751 0.933325 29.9189 0.870213 30.247 1.18577L38.6598 9.30824C39.2341 9.85731 39.3603 10.2234 39.3603 11.1827C39.3603 11.3531 38.9817 13.3537 38.5462 14.6285C38.1744 15.7069 37.5408 16.3958 36.6994 17.3107L36.6529 17.3613C34.6522 19.5386 29.3698 24.4676 27.2871 26.4178C26.8706 26.8028 26.2331 26.8596 25.9113 26.5377L22.0047 22.65C21.6007 22.2461 21.7901 21.533 22.4086 21.148L30.1334 16.383V16.3578Z" fill="#00C751"/>
</svg>
