<svg width="80" height="85" viewBox="0 0 80 85" fill="none" xmlns="http://www.w3.org/2000/svg">
<g clip-path="url(#clip0_936_288)">
<path d="M67.4545 11.8322L66.424 6.61015C66.3388 6.17627 65.8739 5.95933 65.4323 6.15303L58.1958 9.22118L60.1173 2.10091C60.2412 1.63604 59.9391 1.2254 59.4665 1.2254H53.7098C53.2372 1.2254 52.8188 1.63604 52.8111 2.10091L52.7336 9.22118L46.3571 6.15303C45.962 5.96708 45.4429 6.17627 45.2337 6.61015L42.7389 11.8322C42.5219 12.2816 42.7389 12.7619 43.1882 12.8472L50.3472 14.203L44.5209 19.4328C44.1412 19.7737 44.1102 20.3393 44.4666 20.6105L48.6582 23.8569C48.9991 24.1203 49.5337 24.0041 49.8126 23.6089L54.3296 17.2867L57.0646 23.6089C57.2351 24.0041 57.7387 24.1203 58.1493 23.8569L63.2474 20.6105C63.6813 20.3393 63.813 19.7737 63.5263 19.4328L59.172 14.203L66.7107 12.8472C67.1911 12.7619 67.5397 12.2816 67.4467 11.8322H67.4545Z" fill="#00C751"/>
<path d="M57.6225 28.831C52.8343 33.0613 44.2032 36.0597 36.5329 36.0597C28.8625 36.0597 21.1766 33.0613 17.7288 28.831C17.5119 28.5598 17.047 28.6605 16.8611 29.0092L14.405 33.7741L14.2578 34.0685C13.8239 34.9208 13.8859 36.2224 14.374 36.8267C17.9613 41.2275 25.7634 44.9775 35.1227 44.9775C44.6294 44.9775 53.7408 41.1113 58.6684 36.6253C59.3348 36.021 59.9391 35.2772 59.5904 33.9135C59.2805 32.6894 58.6917 30.2411 58.4283 29.0014C58.3508 28.6528 57.9247 28.552 57.6225 28.8232V28.831Z" fill="#00C751"/>
<path d="M37.6253 11.5843L36.5638 6.65665C36.4476 6.1143 35.8665 5.85088 35.3164 6.08331L28.1962 9.12047L29.9704 2.08543C30.1176 1.50434 29.7302 0.992981 29.1414 0.992981H23.6947C23.1058 0.992981 22.5945 1.50434 22.6022 2.08543L22.6487 9.12047L16.28 6.08331C15.7841 5.85088 15.1411 6.1143 14.8931 6.65665L12.623 11.5843C12.3673 12.1421 12.6463 12.7387 13.2118 12.8472L20.3166 14.1876L14.6529 19.3554C14.1803 19.7815 14.1648 20.4866 14.6142 20.8275L18.6276 23.8956C19.0537 24.221 19.72 24.0738 20.0609 23.5857L24.4152 17.3254L27.2354 23.5857C27.4601 24.0816 28.0877 24.221 28.5913 23.8956L33.3562 20.8275C33.8908 20.4866 34.038 19.7815 33.6739 19.3554L29.2809 14.1876L36.7188 12.8472C37.3154 12.7387 37.7338 12.1421 37.6175 11.5843H37.6253Z" fill="#00C751"/>
</g>
<defs>
<clipPath id="clip0_936_288">
<rect width="54.94" height="44" fill="white" transform="translate(12.53 0.985229)"/>
</clipPath>
</defs>
</svg>
