<svg width="80" height="85" viewBox="0 0 80 85" fill="none" xmlns="http://www.w3.org/2000/svg">
<g clip-path="url(#clip0_936_295)">
<path d="M35.4143 44.9852C31.0616 44.9852 27.9064 44.0745 25.9416 42.2603C23.9768 40.4389 23.2239 37.8789 23.69 34.5804L23.8263 33.8992C24.2995 30.5504 25.7767 27.9546 28.265 26.1045C30.7533 24.2544 34.1665 23.3294 38.4977 23.3294C42.8289 23.3294 45.9768 24.2544 47.9345 26.1045C49.8921 27.9546 50.6379 30.5504 50.1718 33.8992L50.0355 34.5804C49.5694 37.8789 48.1066 40.4389 45.6398 42.2603C43.1731 44.0817 39.7669 44.9852 35.4143 44.9852ZM36.0668 40.317C37.5655 40.317 38.7702 39.8653 39.6809 38.9546C40.5916 38.0439 41.1652 36.7531 41.4019 35.0823L41.6815 33.4259C41.9325 31.6619 41.7246 30.3209 41.072 29.4102C40.4195 28.4924 39.3367 28.0334 37.838 28.0334C36.3393 28.0334 35.1346 28.4924 34.2239 29.4102C33.3132 30.3281 32.7324 31.669 32.4814 33.4259L32.2018 35.0823C31.9651 36.7603 32.1802 38.051 32.8328 38.9546C33.4925 39.8653 34.5681 40.317 36.0668 40.317Z" fill="#00C751"/>
<path d="M65.4025 10.7591L64.4273 6.21277C64.3197 5.71081 63.7819 5.46701 63.28 5.68213L56.7115 8.48591L58.3536 1.98917C58.4899 1.45136 58.1313 0.978088 57.5935 0.978088H52.5668C52.029 0.978088 51.5485 1.45136 51.5557 1.98917L51.5987 8.48591L45.7187 5.68213C45.2669 5.46701 44.6717 5.71081 44.4351 6.21277L42.3412 10.7591C42.1046 11.2754 42.3628 11.8275 42.8862 11.9279L49.4403 13.1684L44.2128 17.937C43.7826 18.3314 43.7611 18.9768 44.177 19.2923L47.8771 22.1248C48.2715 22.4259 48.881 22.2897 49.2037 21.8379L53.2265 16.0654L55.8295 21.8379C56.0375 22.2969 56.6183 22.4259 57.0844 22.1248L61.4801 19.2923C61.9749 18.9768 62.1111 18.3314 61.7741 17.937L57.7154 13.1684L64.5779 11.9279C65.1229 11.8275 65.5173 11.2754 65.4025 10.7591Z" fill="#00C751"/>
<path d="M37.7304 10.7591L36.7552 6.21277C36.6476 5.71081 36.1098 5.46701 35.6079 5.68213L29.0394 8.48591L30.6815 1.98917C30.8178 1.45136 30.4592 0.978088 29.9214 0.978088H24.8947C24.3569 0.978088 23.8765 1.45136 23.8836 1.98917L23.9266 8.48591L18.0466 5.68213C17.5948 5.46701 16.9997 5.71081 16.763 6.21277L14.662 10.7591C14.4253 11.2754 14.6835 11.8275 15.207 11.9279L21.7611 13.1684L16.5336 17.937C16.1033 18.3314 16.0818 18.9768 16.4977 19.2923L20.1978 22.1248C20.5922 22.4259 21.2017 22.2897 21.5244 21.8379L25.5472 16.0654L28.1502 21.8379C28.3582 22.2969 28.939 22.4259 29.4051 22.1248L33.8008 19.2923C34.2956 18.9768 34.4319 18.3314 34.0948 17.937L30.0362 13.1684L36.8986 11.9279C37.4436 11.8275 37.838 11.2754 37.7233 10.7591H37.7304Z" fill="#00C751"/>
</g>
<defs>
<clipPath id="clip0_936_295">
<rect width="50.8481" height="44" fill="white" transform="translate(14.5759 0.985229)"/>
</clipPath>
</defs>
</svg>
