<svg width="80" height="84" viewBox="0 0 80 84" fill="none" xmlns="http://www.w3.org/2000/svg">
<path d="M25.6345 63.689L25.9247 61.8192C25.9569 61.6154 25.7957 61.4382 25.5839 61.4382H14.2225C14.006 61.4382 13.8264 61.5888 13.7942 61.7926L13.504 63.6624C13.4718 63.8662 13.633 64.0434 13.8448 64.0434H17.11L15.01 77.8185C14.9731 78.0711 15.1758 78.2971 15.4383 78.2971H19.2377C19.4541 78.2971 19.6337 78.1464 19.666 77.9426L21.7845 64.0479H25.2062C25.4227 64.0479 25.6023 63.8972 25.6345 63.6934V63.689ZM12.5001 65.8822H9.06445C8.848 65.8822 8.6684 66.0328 8.63616 66.2366L7.17165 75.714C6.84467 75.8114 6.46703 75.8114 6.19532 75.8114C4.75384 75.8114 4.45449 75.1645 4.45449 74.3715C4.45449 74.048 4.50976 73.7024 4.58805 73.2283L5.64268 66.2588C5.67492 66.0594 5.50912 65.8778 5.30188 65.8778H1.86629C1.64983 65.8778 1.47022 66.0284 1.43799 66.2322L0.189938 74.3936C0.134674 74.6905 0.0794067 75.1867 0.0794067 75.5855C0.0794067 77.3755 1.34128 78.4433 3.16039 78.4433C4.97951 78.4433 6.46243 77.5394 7.04731 76.5115L6.85849 77.823C6.82165 78.0711 7.02428 78.2971 7.28679 78.2971H10.6303C10.8467 78.2971 11.0263 78.1464 11.0586 77.9426L12.8455 66.2632C12.8777 66.0639 12.7119 65.8822 12.5047 65.8822H12.5001ZM65.6551 61.5401C64.4439 61.3629 63.03 61.2654 61.6806 61.2654C54.9154 61.2654 52.8107 64.5131 52.2259 71.9035C51.8989 76.0152 53.8101 78.4477 56.3384 78.4477C58.4062 78.4477 59.7049 77.3179 60.1517 76.5159L59.9352 77.916C59.903 78.1198 60.0642 78.2971 60.276 78.2971H63.9142C64.1307 78.2971 64.3103 78.1464 64.3425 77.9426L65.7518 68.7001C65.784 68.5007 65.6182 68.3191 65.411 68.3191H60.1655C59.9536 68.3191 59.7694 68.4697 59.7372 68.6691L59.5207 69.985C59.4931 70.1623 59.6359 70.3218 59.8201 70.3218H61.1096L60.3082 75.4924C59.9536 75.6165 59.2905 75.6431 58.9359 75.6431C57.3608 75.6431 56.8819 74.5974 57.0338 72.0409C57.4069 65.736 59.0464 64.07 62.4129 64.07C63.1037 64.07 63.7761 64.1099 64.7432 64.2207C64.9873 64.2473 65.2176 64.1099 65.2958 63.8884L65.959 62.0319C66.0373 61.8148 65.8899 61.58 65.6551 61.5445V61.5401ZM50.1212 65.8822H46.6764C46.4645 65.8822 46.2849 66.0284 46.2481 66.2278L46.1468 66.7949C45.7415 66.1879 44.8527 65.736 43.7566 65.736C39.819 65.736 37.7788 68.7887 37.7788 73.955C37.7788 76.9103 39.1743 78.4477 41.3756 78.4477C42.9783 78.4477 44.0974 77.3843 44.6685 76.5159L44.2816 79.0414C44.0744 80.57 42.7803 80.9688 41.1269 80.9688C40.3809 80.9688 39.5565 80.8802 38.6493 80.6586C38.4236 80.6055 38.1933 80.7295 38.1289 80.9422L37.5624 82.7411C37.4933 82.9626 37.6269 83.1974 37.8571 83.2639C38.8243 83.5386 40.0309 83.7336 41.5598 83.7336C46.0547 83.7336 48.0902 81.8328 48.4955 79.1478L50.462 66.2677C50.4942 66.0683 50.3284 65.8866 50.1212 65.8866V65.8822ZM44.7882 75.714C44.4889 75.7893 44.1619 75.8114 43.9178 75.8114C42.6145 75.8114 42.002 74.7348 41.9559 73.6404C41.9006 72.4485 42.0618 71.0263 42.5132 69.923C42.8908 68.9926 43.775 68.3634 44.8435 68.3634C45.0876 68.3634 45.4422 68.39 45.9027 68.4387L44.7882 75.714ZM35.9689 65.8822H32.5241C32.3123 65.8822 32.1327 66.0284 32.0958 66.2278L31.9945 66.7949C31.5893 66.1879 30.7004 65.736 29.6043 65.736C25.6668 65.736 23.6266 68.7887 23.6266 73.955C23.6266 76.9103 25.022 78.4477 27.2234 78.4477C28.826 78.4477 29.9451 77.3843 30.5162 76.5159L30.3136 77.9205C30.2859 78.1198 30.4471 78.2971 30.659 78.2971H34.0992C34.3156 78.2971 34.4952 78.1464 34.5275 77.9426L36.3143 66.2632C36.3466 66.0639 36.1808 65.8822 35.9736 65.8822H35.9689ZM30.6359 75.714C30.3366 75.7893 30.0096 75.8114 29.7655 75.8114C28.4622 75.8114 27.8497 74.7348 27.8036 73.6404C27.7484 72.4485 27.9096 71.0263 28.3609 69.923C28.7385 68.9926 29.6228 68.3634 30.6912 68.3634C30.9353 68.3634 31.2899 68.39 31.7504 68.4387L30.6359 75.714ZM74.6677 65.7315C69.8321 65.7315 67.3591 68.6603 67.3591 73.7511C67.3591 76.8571 69.0722 78.4433 72.4664 78.4433C77.302 78.4433 79.7475 75.5146 79.7475 70.4237C79.7475 67.3177 78.0619 65.7315 74.6677 65.7315ZM72.9822 75.8114C72.0565 75.8114 71.7341 75.0892 71.7341 73.8265C71.7341 70.1756 72.7105 68.3634 74.1243 68.3634C75.073 68.3634 75.3724 69.0856 75.3724 70.3484C75.3724 73.9993 74.396 75.8114 72.9822 75.8114Z" fill="#00C751"/>
</svg>
