<svg width="80" height="84" viewBox="0 0 80 84" fill="none" xmlns="http://www.w3.org/2000/svg">
<g clip-path="url(#clip0_936_257)">
<path d="M33.3325 11.501C32.5113 17.3117 27.0845 22.0168 21.2292 22.0168C15.3739 22.0168 11.2859 17.3117 12.1071 11.501C12.9283 5.69036 18.3462 0.985229 24.2104 0.985229C30.0746 0.985229 34.1536 5.69036 33.3325 11.501Z" fill="#00C751"/>
<path d="M64.0254 18.6719C68.6264 14.422 69.3344 7.76468 65.6067 3.80234C61.879 -0.160008 55.1272 0.0730753 50.5262 4.32294C45.9252 8.57281 45.2172 15.2301 48.9449 19.1925C52.6726 23.1548 59.4243 22.9217 64.0254 18.6719Z" fill="#00C751"/>
<path d="M52.1568 29.3044L51.3089 35.2566H21.7826L22.6305 29.3044H15.249L13.0265 44.9852H57.2802L59.5027 29.3044H52.1568Z" fill="#00C751"/>
</g>
<defs>
<clipPath id="clip0_936_257">
<rect width="56" height="44" fill="white" transform="translate(12 0.985229)"/>
</clipPath>
</defs>
</svg>
