<svg width="80" height="85" viewBox="0 0 80 85" fill="none" xmlns="http://www.w3.org/2000/svg">
<g clip-path="url(#clip0_936_265)">
<path d="M22.0396 21.2942C27.6506 21.2942 32.8346 16.7508 33.6203 11.1397C34.4061 5.52871 30.5031 0.985229 24.8921 0.985229C19.2811 0.985229 14.097 5.52871 13.3113 11.1397C12.5256 16.7508 16.4286 21.2942 22.0396 21.2942Z" fill="#00C751"/>
<path d="M57.9604 0.985229C52.3494 0.985229 47.1654 5.52871 46.3797 11.1397C45.5939 16.7508 49.4969 21.2942 55.1079 21.2942C60.7189 21.2942 65.9029 16.7508 66.6887 11.1397C67.4744 5.52871 63.5714 0.985229 57.9604 0.985229Z" fill="#00C751"/>
<path d="M23.8672 23.7368C23.4317 23.7368 23.0644 24.0613 23.0047 24.4883L21.8688 32.5504C21.288 36.6583 21.604 39.4169 23.3121 41.4409C25.0116 43.465 26.993 44.3703 30.7252 44.7632C32.8517 44.9852 37.0279 45.0962 39.0435 44.8913C42.7158 44.524 45.6025 43.7725 47.8657 41.7484C50.1203 39.7158 51.538 36.6498 52.1188 32.559L53.2205 24.7445C53.2974 24.215 52.8874 23.7453 52.3579 23.7453H23.8672V23.7368ZM46.3199 32.3027C46.0637 34.1048 45.3975 35.4541 44.3043 36.3509C43.2112 37.2476 41.6825 37.743 39.8719 37.8796C37.6685 38.0504 34.7477 38.1529 32.4418 37.8113C30.6483 37.5465 29.5466 37.2476 28.6925 36.3423C27.847 35.4456 27.5481 34.0962 27.7958 32.2942L28.0093 30.7484C28.0691 30.3128 28.4363 29.9969 28.8719 29.9969H45.6281C46.1576 29.9969 46.5675 30.4666 46.4907 30.9961L46.3113 32.2942L46.3199 32.3027Z" fill="#00C751"/>
</g>
<defs>
<clipPath id="clip0_936_265">
<rect width="53.5823" height="44" fill="white" transform="translate(13.2089 0.985229)"/>
</clipPath>
</defs>
</svg>
