<svg width="40" height="40" viewBox="0 0 40 40" fill="none" xmlns="http://www.w3.org/2000/svg">
<g clip-path="url(#clip0_249_315)">
<path d="M0 20C0 8.97585 8.97585 0 20 0C31.0241 0 40 8.97585 40 20C40 31.0241 31.0241 40 20 40C8.97585 40 0 31.0325 0 20ZM2.28976 20C2.28976 29.7669 10.2331 37.7102 20 37.7102C29.7669 37.7102 37.7102 29.7669 37.7102 20C37.7102 10.2331 29.7669 2.28976 20 2.28976C10.2331 2.28976 2.28976 10.2331 2.28976 20Z" fill="#C8C8C8"/>
<path d="M25.9451 19.3922C27.7661 19.3922 29.2423 17.9159 29.2423 16.0949C29.2423 14.2739 27.7661 12.7977 25.9451 12.7977C24.1241 12.7977 22.6478 14.2739 22.6478 16.0949C22.6478 17.9159 24.1241 19.3922 25.9451 19.3922Z" fill="#C8C8C8"/>
<path d="M8.34307 18.4013L17.5271 18.3181L18.3181 16.353L12.015 10.1998L10.4163 11.8401L14.7294 16.0533L8.32642 16.1116L8.34307 18.4013Z" fill="#C8C8C8"/>
<path d="M30.6994 23.239C29.3089 27.8268 25.0375 31.1823 20 31.1823C14.9626 31.1823 10.6911 27.8268 9.30061 23.239H6.93591C8.39303 29.1007 13.6886 33.4721 20 33.4721C26.3114 33.4721 31.607 29.1091 33.0641 23.239H30.6994V23.239Z" fill="#C8C8C8"/>
</g>
<defs>
<clipPath id="clip0_249_315">
<rect width="40" height="40" fill="white"/>
</clipPath>
</defs>
</svg>
