<svg width="24" height="21" viewBox="0 0 24 21" fill="none" xmlns="http://www.w3.org/2000/svg">
<path d="M23.9548 6.12473C23.6026 8.62306 21.2909 10.6518 18.7896 10.6518C16.2882 10.6518 14.5454 8.62607 14.8976 6.12473C15.2498 3.62641 17.5615 1.59765 20.0628 1.59765C22.5641 1.59765 24.3069 3.6234 23.9548 6.12473Z" fill="#00C751"/>
<path d="M21.0651 13.5625C21.1886 14.1344 21.4595 15.2752 21.6039 15.8441H21.6009C21.7635 16.4762 21.4835 16.8194 21.1735 17.1023C18.8829 19.1883 14.5815 20.9852 10.229 20.9852C5.87654 20.9852 2.25247 19.2424 0.584914 17.1956C0.356152 16.9157 0.326052 16.3077 0.530734 15.9133L0.599965 15.7779L1.74077 13.5625C1.82505 13.397 2.04177 13.3548 2.14411 13.4782C3.74845 15.4438 7.31835 16.8374 10.8852 16.8374C14.4521 16.8374 18.4645 15.4438 20.6889 13.4782C20.8304 13.3548 21.029 13.4 21.0651 13.5625Z" fill="#00C751"/>
<path d="M7.29427 7.33175L0.636085 8.1866H0.639095C0.259832 8.25884 -0.0381609 8.03309 0.00397952 7.70199L0.678226 4.88761C0.720366 4.55651 1.08458 4.27356 1.45481 4.28259L7.83005 4.66186L4.72069 2.73845C4.49193 2.59698 4.49494 2.28394 4.72671 2.06119L6.68925 0.164877C6.8849 -0.0247551 7.19193 -0.0548554 7.34845 0.095646L11.3608 3.96955C11.6347 4.23142 11.6949 4.40601 11.6949 4.86353C11.6949 4.9448 11.5143 5.89898 11.3066 6.50701C11.1293 7.02132 10.8271 7.34986 10.4258 7.78622L10.4036 7.81035C9.44945 8.84881 6.93005 11.1996 5.93674 12.1297C5.73808 12.3133 5.43407 12.3404 5.28056 12.1869L3.41735 10.3328C3.22471 10.1401 3.31501 9.79998 3.60999 9.61636L7.29427 7.34379V7.33175Z" fill="#00C751"/>
</svg>
