<svg width="215" height="49" viewBox="0 0 215 49" fill="none" xmlns="http://www.w3.org/2000/svg">
<path d="M114.622 10.0405L115.157 6.4522C115.217 6.06106 114.919 5.72093 114.528 5.72093H93.551C93.1514 5.72093 92.8198 6.01004 92.7603 6.40118L92.2246 9.98949C92.165 10.3806 92.4627 10.7208 92.8538 10.7208H98.8825L95.0051 37.1569C94.9371 37.6416 95.3112 38.0752 95.7959 38.0752H102.811C103.211 38.0752 103.542 37.7861 103.602 37.395L107.513 10.7293H113.831C114.231 10.7293 114.562 10.4402 114.622 10.049V10.0405ZM90.3709 14.2495H84.0276C83.6279 14.2495 83.2963 14.5386 83.2368 14.9298L80.5328 33.1179C79.9291 33.305 79.2318 33.305 78.7301 33.305C76.0687 33.305 75.516 32.0635 75.516 30.5415C75.516 29.9208 75.618 29.2575 75.7626 28.3477L77.7098 14.9723C77.7693 14.5897 77.4632 14.241 77.0806 14.241H70.7372C70.3376 14.241 70.006 14.5301 69.9464 14.9213L67.6421 30.584C67.5401 31.1537 67.438 32.1061 67.438 32.8713C67.438 36.3066 69.7679 38.3558 73.1266 38.3558C76.4853 38.3558 79.2233 36.6212 80.3032 34.6485L79.9546 37.1654C79.8866 37.6416 80.2607 38.0752 80.7454 38.0752H86.9186C87.3183 38.0752 87.6499 37.7861 87.7094 37.395L91.0086 14.9808C91.0681 14.5982 90.762 14.2495 90.3794 14.2495H90.3709ZM188.514 5.9165C186.277 5.57638 183.667 5.38931 181.176 5.38931C168.684 5.38931 164.799 11.6221 163.719 25.8053C163.115 33.6961 166.644 38.3643 171.312 38.3643C175.13 38.3643 177.528 36.196 178.352 34.657L177.953 37.344C177.893 37.7351 178.191 38.0752 178.582 38.0752H185.299C185.699 38.0752 186.031 37.7861 186.09 37.395L188.692 19.6575C188.752 19.2749 188.446 18.9262 188.063 18.9262H178.378C177.987 18.9262 177.647 19.2154 177.587 19.598L177.188 22.1234C177.137 22.4635 177.4 22.7696 177.74 22.7696H180.121L178.642 32.6928C177.987 32.9309 176.762 32.9819 176.108 32.9819C173.2 32.9819 172.315 30.9751 172.596 26.0689C173.285 13.9689 176.312 10.7718 182.527 10.7718C183.803 10.7718 185.044 10.8483 186.83 11.0609C187.281 11.1119 187.706 10.8483 187.85 10.4231L189.075 6.86035C189.219 6.4437 188.947 5.99303 188.514 5.92501V5.9165ZM159.833 14.2495H153.472C153.081 14.2495 152.75 14.5301 152.682 14.9128L152.495 16.0012C151.746 14.8363 150.105 13.9689 148.081 13.9689C140.811 13.9689 137.044 19.8276 137.044 29.7422C137.044 35.4138 139.621 38.3643 143.685 38.3643C146.644 38.3643 148.711 36.3236 149.765 34.657L149.051 39.5037C148.668 42.4373 146.279 43.2026 143.226 43.2026C141.849 43.2026 140.327 43.0325 138.651 42.6074C138.235 42.5053 137.81 42.7434 137.691 43.1516L136.645 46.6038C136.517 47.029 136.764 47.4797 137.189 47.6072C138.975 48.1344 141.202 48.5085 144.025 48.5085C152.324 48.5085 156.083 44.8607 156.831 39.7078L160.462 14.9893C160.521 14.6067 160.215 14.258 159.833 14.258V14.2495ZM149.986 33.1179C149.433 33.2625 148.83 33.305 148.379 33.305C145.973 33.305 144.842 31.2387 144.757 29.1385C144.655 26.8511 144.952 24.1216 145.786 22.0044C146.483 20.2187 148.115 19.0113 150.088 19.0113C150.539 19.0113 151.194 19.0623 152.044 19.1558L149.986 33.1179ZM133.703 14.2495H127.342C126.951 14.2495 126.62 14.5301 126.552 14.9128L126.365 16.0012C125.616 14.8363 123.975 13.9689 121.951 13.9689C114.681 13.9689 110.914 19.8276 110.914 29.7422C110.914 35.4138 113.491 38.3643 117.555 38.3643C120.514 38.3643 122.581 36.3236 123.635 34.657L123.261 37.3525C123.21 37.7351 123.507 38.0752 123.899 38.0752H130.25C130.65 38.0752 130.982 37.7861 131.041 37.395L134.34 14.9808C134.4 14.5982 134.094 14.2495 133.711 14.2495H133.703ZM123.856 33.1179C123.303 33.2625 122.7 33.305 122.249 33.305C119.843 33.305 118.712 31.2387 118.627 29.1385C118.525 26.8511 118.822 24.1216 119.656 22.0044C120.353 20.2187 121.985 19.0113 123.958 19.0113C124.409 19.0113 125.064 19.0623 125.914 19.1558L123.856 33.1179ZM205.154 13.9604C196.226 13.9604 191.66 19.581 191.66 29.351C191.66 35.3117 194.823 38.3558 201.09 38.3558C210.018 38.3558 214.533 32.7353 214.533 22.9652C214.533 17.0045 211.421 13.9604 205.154 13.9604ZM202.042 33.305C200.333 33.305 199.738 31.919 199.738 29.4956C199.738 22.489 201.54 19.0113 204.151 19.0113C205.903 19.0113 206.455 20.3973 206.455 22.8207C206.455 29.8272 204.653 33.305 202.042 33.305ZM1.30942 17.2426L14.9229 15.491V15.5165L7.38913 20.1677C6.78541 20.5418 6.59835 21.2391 6.99799 21.6302L10.8074 25.4226C11.122 25.7372 11.7427 25.6777 12.1424 25.3036C14.1746 23.3989 19.3275 18.5946 21.2747 16.4689C22.1165 15.5505 22.7542 14.8703 23.1199 13.7989C23.545 12.5574 23.9192 10.6017 23.9192 10.4402C23.9192 9.50481 23.7916 9.14768 23.2389 8.61199L15.0334 0.695601C14.7103 0.380986 14.0896 0.449011 13.6899 0.83165L9.67647 4.70906C9.2003 5.16823 9.20029 5.80596 9.65946 6.09507L16.0198 10.032L2.98453 9.25822C2.22775 9.24122 1.47948 9.81943 1.39445 10.4997L-5.9084e-05 16.2478C-0.0850901 16.928 0.51863 17.3872 1.30092 17.2341L1.30942 17.2426ZM41.0359 3.76522C35.9255 3.76522 31.1893 7.91473 30.4751 13.0251C29.7523 18.1355 33.3236 22.285 38.434 22.285C43.5443 22.285 48.2805 18.1355 48.9948 13.0251C49.7091 7.91473 46.1463 3.76522 41.0359 3.76522ZM43.0852 28.2371C43.0171 27.9055 42.609 27.812 42.3199 28.0671C37.7707 32.089 29.5652 34.9376 22.2696 34.9376C14.9739 34.9376 7.66974 32.089 4.39604 28.0671C4.19197 27.812 3.74981 27.9055 3.57124 28.2371L1.23289 32.7693L1.08834 33.0499C0.671686 33.8577 0.731208 35.0991 1.19888 35.6689C4.60862 39.8524 12.0233 43.4152 20.9261 43.4152C29.8288 43.4152 38.621 39.7418 43.3062 35.4733C43.9355 34.8951 44.5137 34.1893 44.182 32.8968C43.8844 31.7319 43.3317 29.4021 43.0766 28.2286L43.0852 28.2371Z" fill="white"/>
</svg>
