<svg width="60" height="48" viewBox="0 0 60 48" fill="none" xmlns="http://www.w3.org/2000/svg">
<g clip-path="url(#clip0_473_331)">
<path d="M58.6868 7.58549L59.627 0.885925C59.7084 0.307285 59.2292 -0.117654 58.6506 0.0270064L35.6496 5.59642C35.2428 5.69587 34.9173 6.04848 34.854 6.45534L33.2447 17.8744C33.1904 18.2813 33.4165 18.6339 33.7962 18.7334L55.224 24.3299C55.7664 24.4745 56.3632 24.0496 56.4445 23.471L57.3939 16.7352C57.4571 16.3193 57.213 15.9577 56.8152 15.8673L40.3421 12.296L40.3782 12.0157L57.855 8.44441C58.2799 8.354 58.6235 7.99235 58.6777 7.57645L58.6868 7.58549Z" fill="#EBEBEB"/>
<path d="M17.6953 19.5162C22.3559 15.1717 23.073 8.36603 19.2971 4.31541C15.5211 0.264797 8.68199 0.503073 4.02141 4.84762C-0.639177 9.19216 -1.35632 15.9978 2.41962 20.0484C6.19556 24.099 13.0347 23.8607 17.6953 19.5162Z" fill="#EBEBEB"/>
<path d="M48.3345 30.1436C43.0454 34.8179 33.4978 38.1361 25.0171 38.1361C16.5364 38.1361 8.03767 34.8179 4.22226 30.1436C3.97815 29.8452 3.4628 29.9537 3.26389 30.3425L0.551516 35.6136L0.388773 35.939C-0.0994541 36.8793 -0.0271241 38.3169 0.524392 38.9859C4.4935 43.8501 13.1098 48.0001 23.462 48.0001C33.968 48.0001 44.049 43.7236 49.4918 38.769C50.2241 38.0999 50.8932 37.2771 50.5135 35.7763C50.1699 34.4292 49.5189 31.7168 49.2296 30.3515C49.1482 29.9628 48.669 29.8543 48.3345 30.1526V30.1436Z" fill="#EBEBEB"/>
</g>
<defs>
<clipPath id="clip0_473_331">
<rect width="59.6361" height="48" fill="white"/>
</clipPath>
</defs>
</svg>
