<svg width="60" height="48" viewBox="0 0 60 48" fill="none" xmlns="http://www.w3.org/2000/svg">
<g clip-path="url(#clip0_473_323)">
<path d="M59.9176 11.833L58.7934 6.13624C58.7004 5.66291 58.1933 5.42625 57.7115 5.63756L49.8172 8.98463L51.9133 1.21706C52.0486 0.709929 51.7189 0.261963 51.2034 0.261963H44.9234C44.4078 0.261963 43.9514 0.709929 43.9429 1.21706L43.8584 8.98463L36.9022 5.63756C36.4712 5.4347 35.9049 5.66291 35.6767 6.13624L32.9551 11.833C32.7184 12.3232 32.9551 12.8473 33.4453 12.9403L41.2551 14.4194L34.8991 20.1246C34.4849 20.4965 34.4511 21.1135 34.8399 21.4093L39.4125 24.9508C39.7844 25.2382 40.3676 25.1114 40.6719 24.6803L45.5995 17.7834L48.5832 24.6803C48.7691 25.1114 49.3185 25.2382 49.7665 24.9508L55.328 21.4093C55.8013 21.1135 55.945 20.4965 55.6323 20.1246L50.8822 14.4194L59.1062 12.9403C59.6302 12.8473 60.0105 12.3232 59.9091 11.833H59.9176Z" fill="#EBEBEB"/>
<path d="M49.1918 30.3772C43.9683 34.9921 34.5526 38.2631 26.1849 38.2631C17.8172 38.2631 9.43267 34.9921 5.67145 30.3772C5.43479 30.0813 4.92766 30.1912 4.7248 30.5716L2.04546 35.7697L1.88487 36.0909C1.41154 37.0206 1.47916 38.4406 2.01165 39.0998C5.92502 43.9007 14.4364 47.9915 24.6466 47.9915C35.0175 47.9915 44.9572 43.7739 50.3328 38.8801C51.0597 38.2208 51.719 37.4094 51.3386 35.9218C51.0006 34.5864 50.3582 31.9155 50.0708 30.5631C49.9863 30.1828 49.5214 30.0729 49.1918 30.3687V30.3772Z" fill="#EBEBEB"/>
<path d="M27.3766 11.5627L26.2187 6.1871C26.0919 5.59544 25.458 5.30807 24.8579 5.56164L17.0903 8.87489L19.0259 1.2003C19.1865 0.56639 18.7638 0.00854492 18.1215 0.00854492H12.1796C11.5372 0.00854492 10.9794 0.56639 10.9878 1.2003L11.0385 8.87489L4.09084 5.56164C3.5499 5.30807 2.84837 5.59544 2.5779 6.1871L0.101408 11.5627C-0.177514 12.1713 0.126765 12.8221 0.743775 12.9404L8.49443 14.4026L2.31588 20.0402C1.8003 20.5051 1.78339 21.2743 2.27362 21.6462L6.65186 24.9932C7.11673 25.3482 7.84362 25.1876 8.21551 24.6551L12.9656 17.8258L16.0422 24.6551C16.2874 25.1961 16.972 25.3482 17.5214 24.9932L22.7195 21.6462C23.3027 21.2743 23.4633 20.5051 23.066 20.0402L18.2736 14.4026L26.3877 12.9404C27.0385 12.8221 27.495 12.1713 27.3682 11.5627H27.3766Z" fill="#EBEBEB"/>
</g>
<defs>
<clipPath id="clip0_473_323">
<rect width="59.9345" height="48" fill="white"/>
</clipPath>
</defs>
</svg>
