<svg width="56" height="48" viewBox="0 0 56 48" fill="none" xmlns="http://www.w3.org/2000/svg">
<g clip-path="url(#clip0_473_307)">
<path d="M22.7327 48C17.9843 48 14.5424 47.0065 12.3989 45.0274C10.2555 43.0404 9.43415 40.2477 9.94262 36.6493L10.0913 35.9061C10.6075 32.2529 12.219 29.4211 14.9335 27.4029C17.648 25.3846 21.3716 24.3755 26.0965 24.3755C30.8214 24.3755 34.2555 25.3846 36.3911 27.4029C38.5267 29.4211 39.3403 32.2529 38.8318 35.9061L38.6832 36.6493C38.1747 40.2477 36.5789 43.0404 33.8879 45.0274C31.1969 47.0143 27.4811 48 22.7327 48V48ZM23.4446 42.9074C25.0795 42.9074 26.3937 42.4146 27.3872 41.4211C28.3807 40.4276 29.0065 39.0196 29.2647 37.1969L29.5697 35.3898C29.8435 33.4654 29.6167 32.0026 28.9048 31.0091C28.1929 30.0078 27.0117 29.5072 25.3768 29.5072C23.7418 29.5072 22.4276 30.0078 21.4341 31.0091C20.4407 32.0104 19.807 33.4733 19.5332 35.3898L19.2281 37.1969C18.97 39.0274 19.2047 40.4355 19.9165 41.4211C20.6362 42.4146 21.8096 42.9074 23.4446 42.9074Z" fill="#EBEBEB"/>
<path d="M55.4472 10.6623L54.3833 5.70275C54.266 5.15516 53.6793 4.88919 53.1317 5.12387L45.9661 8.18254L47.7575 1.09519C47.9061 0.508485 47.515 -0.0078125 46.9283 -0.0078125H41.4446C40.8579 -0.0078125 40.3338 0.508485 40.3416 1.09519L40.3885 8.18254L33.9739 5.12387C33.4811 4.88919 32.8318 5.15516 32.5737 5.70275L30.2895 10.6623C30.0313 11.2256 30.3129 11.8279 30.884 11.9374L38.0339 13.2908L32.3312 18.4928C31.8618 18.9231 31.8383 19.6271 32.2921 19.9713L36.3286 23.0613C36.7588 23.3898 37.4237 23.2412 37.7758 22.7484L42.1643 16.4511L45.0039 22.7484C45.2308 23.249 45.8644 23.3898 46.3729 23.0613L51.1682 19.9713C51.708 19.6271 51.8566 18.9231 51.4889 18.4928L47.0613 13.2908L54.5476 11.9374C55.1421 11.8279 55.5724 11.2256 55.4472 10.6623V10.6623Z" fill="#EBEBEB"/>
<path d="M25.2592 10.6616L24.1953 5.70201C24.078 5.15443 23.4913 4.88846 22.9437 5.12314L15.7781 8.18181L17.5695 1.09445C17.7181 0.507752 17.327 -0.00854492 16.7403 -0.00854492H11.2566C10.6699 -0.00854492 10.1458 0.507752 10.1536 1.09445L10.2005 8.18181L3.78593 5.12314C3.2931 4.88846 2.64382 5.15443 2.38567 5.70201L0.0936248 10.6616C-0.164524 11.2248 0.117093 11.8272 0.688149 11.9367L7.83808 13.29L2.13535 18.4921C1.66598 18.9224 1.64252 19.6264 2.09623 19.9706L6.13274 23.0606C6.56298 23.3891 7.22791 23.2405 7.57993 22.7476L11.9685 16.4504L14.8081 22.7476C15.035 23.2483 15.6686 23.3891 16.1771 23.0606L20.9724 19.9706C21.5121 19.6264 21.6608 18.9224 21.2931 18.4921L16.8655 13.29L24.3518 11.9367C24.9463 11.8272 25.3765 11.2248 25.2514 10.6616H25.2592Z" fill="#EBEBEB"/>
</g>
<defs>
<clipPath id="clip0_473_307">
<rect width="55.4707" height="48" fill="white"/>
</clipPath>
</defs>
</svg>
