<svg width="61" height="48" viewBox="0 0 61 48" fill="none" xmlns="http://www.w3.org/2000/svg">
<g clip-path="url(#clip0_473_336)">
<path d="M23.0593 11.4718C22.1716 17.8107 16.3055 22.9435 9.97625 22.9435C3.64701 22.9435 -0.771889 17.8107 0.115749 11.4718C1.00339 5.13286 6.85987 0 13.1988 0C19.5377 0 23.9469 5.13286 23.0593 11.4718Z" fill="#EBEBEB"/>
<path d="M56.2367 19.2946C61.2102 14.6584 61.9755 7.3959 57.946 3.07334C53.9166 -1.24922 46.6183 -0.994944 41.6448 3.64127C36.6713 8.27749 35.906 15.54 39.9355 19.8626C43.9649 24.1851 51.2632 23.9309 56.2367 19.2946Z" fill="#EBEBEB"/>
<path d="M43.4074 30.8936L42.4909 37.3868H10.5745L11.4911 30.8936H3.51197L1.10956 47.9999H48.9455L51.348 30.8936H43.4074Z" fill="#EBEBEB"/>
</g>
<defs>
<clipPath id="clip0_473_336">
<rect width="60.5331" height="48" fill="white"/>
</clipPath>
</defs>
</svg>
