<svg width="85" height="48" viewBox="0 0 85 48" fill="none" xmlns="http://www.w3.org/2000/svg">
<g clip-path="url(#clip0_473_311)">
<path d="M71.0444 41.3953H65.4461C64.9894 41.3953 64.6427 40.9978 64.7104 40.5412L66.444 28.1945C66.4947 27.8224 66.8076 27.5518 67.1797 27.5518H72.778C73.2347 27.5518 73.5814 27.9492 73.5137 28.4059L71.7801 40.7526C71.7294 41.1247 71.4165 41.3953 71.0444 41.3953Z" fill="#EBEBEB"/>
<path d="M82.0042 41.3953H76.4059C75.9493 41.3953 75.6025 40.9978 75.6702 40.5412L77.4038 28.1945C77.4545 27.8224 77.7674 27.5518 78.1395 27.5518H83.7378C84.1945 27.5518 84.5412 27.9492 84.4736 28.4059L82.74 40.7526C82.6892 41.1247 82.3763 41.3953 82.0042 41.3953Z" fill="#EBEBEB"/>
<path d="M6.35095 41.3953H0.744187C0.287527 41.3953 -0.0591957 40.9978 0.00845762 40.5412L1.74207 28.1945C1.79281 27.8224 2.10571 27.5518 2.4778 27.5518H8.07611C8.53277 27.5518 8.87949 27.9492 8.81184 28.4059L7.07823 40.7526C7.02749 41.1247 6.71459 41.3953 6.3425 41.3953H6.35095Z" fill="#EBEBEB"/>
<path d="M17.3023 41.3953H11.704C11.2474 41.3953 10.9006 40.9978 10.9683 40.5412L12.7019 28.1945C12.7527 27.8224 13.0655 27.5518 13.4376 27.5518H19.036C19.4926 27.5518 19.8393 27.9492 19.7717 28.4059L18.0381 40.7526C17.9873 41.1247 17.6744 41.3953 17.3023 41.3953V41.3953Z" fill="#EBEBEB"/>
<path d="M40.1776 48C35.0444 48 31.3235 46.9261 29.0063 44.7865C26.6892 42.6385 25.8013 39.6195 26.3509 35.7294L26.5116 34.9261C27.0698 30.9768 28.8118 27.9155 31.7463 25.7337C34.6808 23.5518 38.7061 22.4609 43.8139 22.4609C48.9218 22.4609 52.6342 23.5518 54.9429 25.7337C57.2516 27.9155 58.1311 30.9768 57.5814 34.9261L57.4207 35.7294C56.871 39.6195 55.1459 42.6385 52.2368 44.7865C49.3277 46.9345 45.3108 48 40.1776 48V48ZM40.9471 42.4948C42.7146 42.4948 44.1353 41.962 45.2093 40.888C46.2833 39.814 46.9598 38.2918 47.2389 36.3214L47.5687 34.3679C47.8647 32.2876 47.6194 30.7062 46.8499 29.6322C46.0803 28.5497 44.8034 28.0085 43.0359 28.0085C41.2685 28.0085 39.8478 28.5497 38.7738 29.6322C37.6998 30.7146 37.0148 32.296 36.7188 34.3679L36.389 36.3214C36.1099 38.3003 36.3636 39.8225 37.1332 40.888C37.9112 41.962 39.1797 42.4948 40.9471 42.4948Z" fill="#EBEBEB"/>
<path d="M72.8372 7.09518L73.7167 0.828792C73.7928 0.287566 73.3446 -0.109897 72.8034 0.0254097L51.2896 5.23471C50.9091 5.32774 50.6046 5.65755 50.5454 6.03809L49.0402 16.7189C48.9894 17.0994 49.2008 17.4292 49.556 17.5222L69.5983 22.7569C70.1057 22.8922 70.6638 22.4948 70.7399 21.9535L71.6279 15.6533C71.6871 15.2643 71.4588 14.926 71.0867 14.8415L55.6786 11.5011L55.7125 11.2389L72.0592 7.89856C72.4566 7.81399 72.778 7.47573 72.8287 7.08672L72.8372 7.09518Z" fill="#EBEBEB"/>
<path d="M19.5687 7.90702L34.9767 11.2474L34.9429 11.5096L18.5962 14.8499C18.1987 14.9345 17.8774 15.2728 17.8266 15.6618L16.9387 21.962C16.8626 22.5032 17.3192 22.9007 17.8605 22.7654L39.3742 17.5307C39.7548 17.4377 40.0592 17.1079 40.1099 16.7273L41.6152 6.04655C41.666 5.666 41.4545 5.33619 41.0994 5.24317L21.0571 0.0254097C20.5497 -0.109897 19.9915 0.287566 19.9154 0.828792L19.0359 7.09518C18.9767 7.48418 19.2051 7.82245 19.5772 7.90702H19.5687Z" fill="#EBEBEB"/>
</g>
<defs>
<clipPath id="clip0_473_311">
<rect width="84.482" height="48" fill="white"/>
</clipPath>
</defs>
</svg>
