<svg width="59" height="48" viewBox="0 0 59 48" fill="none" xmlns="http://www.w3.org/2000/svg">
<g clip-path="url(#clip0_473_327)">
<path d="M9.63369 22.1553C15.7548 22.1553 21.4101 17.1988 22.2672 11.0776C23.1244 4.95652 18.8666 0 12.7455 0C6.62437 0 0.969092 4.95652 0.11195 11.0776C-0.745193 17.1988 3.51257 22.1553 9.63369 22.1553Z" fill="#EBEBEB"/>
<path d="M48.8199 0C42.6987 0 37.0435 4.95652 36.1863 11.0776C35.3292 17.1988 39.5869 22.1553 45.7081 22.1553C51.8292 22.1553 57.4845 17.1988 58.3416 11.0776C59.1987 4.95652 54.941 0 48.8199 0Z" fill="#EBEBEB"/>
<path d="M11.6273 24.8198C11.1522 24.8198 10.7515 25.1739 10.6863 25.6397L9.4472 34.4347C8.81366 38.9161 9.15838 41.9254 11.0217 44.1335C12.8758 46.3416 15.0373 47.3291 19.1087 47.7577C21.4286 47.9999 25.9845 48.1211 28.1832 47.8975C32.1894 47.4968 35.3385 46.677 37.8074 44.4689C40.2671 42.2515 41.8137 38.9068 42.4472 34.444L43.6491 25.9192C43.7329 25.3416 43.2857 24.8291 42.7081 24.8291H11.6273V24.8198ZM36.1211 34.1645C35.8416 36.1304 35.1149 37.6024 33.9224 38.5807C32.7298 39.559 31.0621 40.0993 29.087 40.2484C26.6832 40.4347 23.4969 40.5465 20.9814 40.1739C19.0248 39.885 17.823 39.559 16.8913 38.5714C15.9689 37.5931 15.6429 36.1211 15.913 34.1552L16.146 32.4689C16.2112 31.9937 16.6118 31.649 17.087 31.649H35.3665C35.9441 31.649 36.3913 32.1614 36.3074 32.7391L36.1118 34.1552L36.1211 34.1645Z" fill="#EBEBEB"/>
</g>
<defs>
<clipPath id="clip0_473_327">
<rect width="58.4534" height="48" fill="white"/>
</clipPath>
</defs>
</svg>
