<svg width="179" height="40" viewBox="0 0 179 40" fill="none" xmlns="http://www.w3.org/2000/svg">
<g clip-path="url(#clip0_431_924)">
<path d="M95.5181 7.9504L95.9645 4.96015C96.0141 4.63419 95.7661 4.35076 95.4402 4.35076H77.9592C77.6262 4.35076 77.3498 4.59168 77.3002 4.91763L76.8538 7.90789C76.8042 8.23384 77.0522 8.51728 77.3782 8.51728H82.4021L79.1709 30.5474C79.1142 30.9513 79.426 31.3127 79.8299 31.3127H85.6758C86.0088 31.3127 86.2852 31.0718 86.3348 30.7458L89.5943 8.52436H94.8591C95.1922 8.52436 95.4685 8.28344 95.5181 7.95749V7.9504ZM75.3091 11.4579H70.023C69.6899 11.4579 69.4136 11.6989 69.364 12.0248L67.1107 27.1816C66.6076 27.3375 66.0265 27.3375 65.6085 27.3375C63.3906 27.3375 62.93 26.3029 62.93 25.0346C62.93 24.5173 63.015 23.9646 63.1355 23.2064L64.7581 12.0602C64.8077 11.7414 64.5527 11.4508 64.2338 11.4508H58.9477C58.6147 11.4508 58.3383 11.6918 58.2887 12.0177L56.3684 25.07C56.2834 25.5447 56.1984 26.3384 56.1984 26.9761C56.1984 29.8388 58.1399 31.5465 60.9388 31.5465C63.7378 31.5465 66.0194 30.101 66.9194 28.457L66.6288 30.5545C66.5721 30.9513 66.8839 31.3127 67.2878 31.3127H72.4322C72.7652 31.3127 73.0416 31.0718 73.0912 30.7458L75.8405 12.0673C75.8901 11.7485 75.635 11.4579 75.3162 11.4579H75.3091ZM157.095 4.51373C155.231 4.2303 153.056 4.07441 150.98 4.07441C140.57 4.07441 137.332 9.26838 136.432 21.0877C135.929 27.6634 138.87 31.5536 142.76 31.5536C145.941 31.5536 147.94 29.7467 148.627 28.4641L148.294 30.7033C148.244 31.0292 148.492 31.3127 148.818 31.3127H154.416C154.749 31.3127 155.026 31.0718 155.075 30.7458L157.244 15.9646C157.293 15.6457 157.038 15.3552 156.719 15.3552H148.648C148.322 15.3552 148.039 15.5961 147.989 15.915L147.656 18.0195C147.614 18.3029 147.833 18.558 148.117 18.558H150.101L148.868 26.8273C148.322 27.0257 147.302 27.0682 146.756 27.0682C144.333 27.0682 143.596 25.3959 143.83 21.3074C144.404 11.2241 146.926 8.55979 152.106 8.55979C153.169 8.55979 154.204 8.62357 155.692 8.80071C156.067 8.84323 156.422 8.62357 156.542 8.26927L157.562 5.30027C157.683 4.95306 157.456 4.57751 157.095 4.52082V4.51373ZM133.194 11.4579H127.894C127.568 11.4579 127.291 11.6918 127.235 12.0106L127.079 12.9176C126.455 11.9469 125.088 11.2241 123.401 11.2241C117.343 11.2241 114.204 16.1063 114.204 24.3685C114.204 29.0948 116.351 31.5536 119.738 31.5536C122.204 31.5536 123.926 29.853 124.804 28.4641L124.209 32.5031C123.89 34.9477 121.899 35.5855 119.355 35.5855C118.207 35.5855 116.939 35.4438 115.543 35.0895C115.196 35.0044 114.841 35.2028 114.742 35.543L113.871 38.4198C113.764 38.7741 113.97 39.1497 114.324 39.256C115.812 39.6953 117.669 40.0071 120.021 40.0071C126.937 40.0071 130.069 36.9672 130.693 32.6732L133.718 12.0744C133.768 11.7555 133.513 11.465 133.194 11.465V11.4579ZM124.988 27.1816C124.528 27.302 124.025 27.3375 123.649 27.3375C121.644 27.3375 120.701 25.6156 120.631 23.8654C120.546 21.9593 120.794 19.6847 121.488 17.9203C122.069 16.4322 123.43 15.426 125.073 15.426C125.449 15.426 125.995 15.4686 126.703 15.5465L124.988 27.1816V27.1816ZM111.419 11.4579H106.119C105.793 11.4579 105.516 11.6918 105.46 12.0106L105.304 12.9176C104.68 11.9469 103.313 11.2241 101.626 11.2241C95.5677 11.2241 92.4286 16.1063 92.4286 24.3685C92.4286 29.0948 94.5757 31.5536 97.9627 31.5536C100.429 31.5536 102.151 29.853 103.029 28.4641L102.717 30.7104C102.675 31.0292 102.923 31.3127 103.249 31.3127H108.542C108.875 31.3127 109.151 31.0718 109.201 30.7458L111.95 12.0673C112 11.7485 111.745 11.4579 111.426 11.4579H111.419ZM103.213 27.1816C102.753 27.302 102.25 27.3375 101.874 27.3375C99.8689 27.3375 98.9264 25.6156 98.8556 23.8654C98.7705 21.9593 99.0186 19.6847 99.713 17.9203C100.294 16.4322 101.655 15.426 103.298 15.426C103.674 15.426 104.22 15.4686 104.928 15.5465L103.213 27.1816V27.1816ZM170.962 11.217C163.522 11.217 159.717 15.9008 159.717 24.0425C159.717 29.0097 162.352 31.5465 167.575 31.5465C175.015 31.5465 178.778 26.8627 178.778 18.721C178.778 13.7538 176.184 11.217 170.962 11.217V11.217ZM168.368 27.3375C166.944 27.3375 166.448 26.1825 166.448 24.163C166.448 18.3242 167.95 15.426 170.126 15.426C171.585 15.426 172.046 16.5811 172.046 18.6005C172.046 24.4393 170.544 27.3375 168.368 27.3375ZM1.09118 13.9522L12.4357 12.4925V12.5137L6.15761 16.3897C5.65451 16.7015 5.49862 17.2826 5.83166 17.6085L9.00615 20.7688C9.26833 21.031 9.7856 20.9814 10.1186 20.6696C11.8122 19.0824 16.1062 15.0788 17.7289 13.3074C18.4304 12.5421 18.9619 11.9752 19.2666 11.0824C19.6209 10.0478 19.9326 8.41807 19.9326 8.28344C19.9326 7.50399 19.8263 7.20638 19.3658 6.75997L12.5279 0.16298C12.2586 -0.0991986 11.7413 -0.0425113 11.4083 0.276355L8.06372 3.50753C7.66691 3.89017 7.66691 4.42162 8.04955 4.66254L13.3498 7.94332L2.48711 7.2985C1.85646 7.28433 1.2329 7.76617 1.16204 8.33304L-4.92368e-05 13.1231C-0.0709084 13.69 0.432192 14.0726 1.0841 13.9451L1.09118 13.9522ZM34.1966 2.721C29.9379 2.721 25.9911 6.17892 25.3959 10.4376C24.7936 14.6962 27.7697 18.1541 32.0283 18.1541C36.2869 18.1541 40.2338 14.6962 40.829 10.4376C41.4242 6.17892 38.4552 2.721 34.1966 2.721ZM35.9043 23.1143C35.8476 22.8379 35.5075 22.76 35.2666 22.9725C31.4756 26.3242 24.6377 28.698 18.558 28.698C12.4783 28.698 6.39145 26.3242 3.66337 22.9725C3.49331 22.76 3.12484 22.8379 2.97604 23.1143L1.02741 26.8911L0.906948 27.1249C0.559738 27.7981 0.60934 28.8326 0.999065 29.3074C3.84052 32.7936 10.0194 35.7626 17.4384 35.7626C24.8573 35.7626 32.1842 32.7015 36.0885 29.1444C36.6129 28.6625 37.0947 28.0744 36.8184 26.9973C36.5704 26.0266 36.1098 24.085 35.8972 23.1072L35.9043 23.1143Z" fill="#00C751"/>
</g>
<defs>
<clipPath id="clip0_431_924">
<rect width="178.778" height="40" fill="white"/>
</clipPath>
</defs>
</svg>
