<svg width="40" height="40" viewBox="0 0 40 40" fill="none" xmlns="http://www.w3.org/2000/svg">
<g clip-path="url(#clip0_875_250)">
<path d="M17.9417 6.50914C17.2102 6.50914 16.6267 5.9174 16.6267 5.19416V1.31498C16.6267 0.583522 17.2184 0 17.9417 0C18.6649 0 19.2567 0.59174 19.2567 1.31498V5.18595C19.2567 5.9174 18.6649 6.50092 17.9417 6.50092V6.50914Z" fill="#00C751"/>
<path d="M25.8233 9.77193C25.4863 9.77193 25.1493 9.64043 24.8946 9.38565C24.3768 8.86788 24.3768 8.0378 24.8946 7.52003L27.6314 4.78323C28.1491 4.26545 28.9792 4.26545 29.497 4.78323C30.0148 5.301 30.0148 6.13108 29.497 6.64885L26.7602 9.38565C26.5054 9.64043 26.1684 9.77193 25.8315 9.77193H25.8233Z" fill="#00C751"/>
<path d="M9.91204 9.63221C9.57508 9.63221 9.23811 9.50071 8.98334 9.24594L6.38625 6.64885C5.86848 6.13108 5.86848 5.301 6.38625 4.78323C6.90403 4.26545 7.73411 4.26545 8.25188 4.78323L10.849 7.38031C11.3667 7.89808 11.3667 8.72816 10.849 9.24594C10.5942 9.50071 10.2572 9.63221 9.92026 9.63221H9.91204Z" fill="#00C751"/>
<path d="M25.7658 40H17.1034C14.6049 40 12.5421 38.6522 11.1531 36.1044L11.1285 36.0551L6.82191 27.1543C6.12333 25.6256 6.6411 23.76 8.01361 22.7984C9.31215 21.8862 11.0956 22.0341 12.353 23.1518L12.3941 23.1847L14.4241 25.1654V14.5387C14.4241 12.2622 16.2076 10.4705 18.4923 10.4705C20.7771 10.4705 22.5606 12.369 22.5606 14.5387V18.648H29.8176C31.9627 18.648 33.6968 20.3904 33.6968 22.5354V32.0773C33.6968 36.4413 30.1463 40 25.774 40H25.7658ZM13.1502 35.0524C14.1283 36.8358 15.4597 37.7399 17.1034 37.7399H25.7658C28.8889 37.7399 31.4285 35.2003 31.4285 32.0773V22.5354C31.4285 21.6396 30.697 20.9164 29.8094 20.9164H23.0372L20.2922 24.1545V14.547C20.2922 13.6183 19.4128 12.7389 18.4841 12.7389C17.4568 12.7389 16.676 13.5114 16.676 14.547V28.1405L15.4597 29.3487L10.8326 24.8284C10.4381 24.4833 9.81349 24.2942 9.31215 24.6476C8.84369 24.9764 8.63823 25.6832 8.86835 26.1927L13.1585 35.0442L13.1502 35.0524Z" fill="#00C751"/>
</g>
<defs>
<clipPath id="clip0_875_250">
<rect width="27.6885" height="40" fill="white" transform="translate(6)"/>
</clipPath>
</defs>
</svg>
