<svg width="38" height="40" viewBox="0 0 38 40" fill="none" xmlns="http://www.w3.org/2000/svg">
<path d="M2.03473 26.6519L23.3331 23.8689V23.9081L11.5478 31.3065C10.6042 31.9043 10.3153 33.0116 10.9315 33.6388L16.8916 39.6751C17.3827 40.1749 18.3552 40.0867 18.9906 39.4889C22.1681 36.4609 30.2272 28.8077 33.2794 25.427C34.5986 23.9669 35.5903 22.8889 36.168 21.1839C36.8324 19.2044 37.4101 16.098 37.4101 15.8334C37.4101 14.344 37.2175 13.7756 36.3413 12.9231L23.5064 0.31138C23.0058 -0.178584 22.0236 -0.0805915 21.3978 0.536764L15.12 6.71031C14.3786 7.43546 14.3689 8.45459 15.1007 8.91515L25.047 15.1769L4.6537 13.9422C3.46939 13.9128 2.30433 14.8339 2.16953 15.9118L0.0127298 25.0742C-0.12207 26.1521 0.83116 26.887 2.04436 26.6519H2.03473Z" fill="#00C751"/>
</svg>
