<svg width="40" height="40" viewBox="0 0 40 40" fill="none" xmlns="http://www.w3.org/2000/svg">
<g clip-path="url(#clip0_436_2023)">
<path d="M0 40.104H40V0H0V40.104V40.104Z" fill="#282828"/>
<path d="M29.4482 5.45667H32.0092V18.0928H29.4482V5.45667Z" fill="white"/>
<path d="M13.4422 13.8943C13.4422 16.2649 11.639 18.0933 9.28092 18.0933C6.92752 18.0933 5.08032 16.2649 5.08032 13.8943V5.45712H7.57836V13.8943C7.57836 14.8527 8.33767 15.625 9.28092 15.625C10.2289 15.625 10.9819 14.8527 10.9819 13.8943V5.45712H13.4422V13.8943Z" fill="white"/>
<path d="M25.2758 34.5524H16.8589V21.921H19.4104V31.9832H25.2758V34.5524Z" fill="white"/>
<path d="M25.2758 18.0919H22.718L19.4104 10.8526V18.0919H16.8589V5.45578H19.4104L22.718 12.6841V5.45578H25.2758V18.0919Z" fill="white"/>
<path d="M9.27862 21.9214C6.92836 21.9214 5.07959 23.8097 5.07959 26.0951V30.3791C5.07959 32.6346 6.92836 34.5528 9.27862 34.5528C9.56316 34.5528 9.83985 34.5229 10.104 34.474L10.9812 37.111H13.4415L12.2766 33.3155C12.9589 32.5338 13.4415 31.4699 13.4415 30.3791V26.0951C13.4415 23.8097 11.6383 21.9214 9.27862 21.9214ZM10.9812 30.3791C10.9812 31.2098 10.2282 31.9837 9.27862 31.9837C8.33694 31.9837 7.57762 31.2098 7.57762 30.3791V26.0951C7.57762 25.151 8.33694 24.3929 9.27862 24.3929C10.2282 24.3929 10.9812 25.151 10.9812 26.0951V30.3791Z" fill="white"/>
<path d="M30.7243 21.9214C28.3677 21.9214 26.5598 23.8097 26.5598 26.0951V30.3792C26.5598 32.6347 28.3677 34.5529 30.7243 34.5529C33.0761 34.5529 34.8871 32.6347 34.8871 30.3792V26.0951C34.8871 23.8097 33.0761 21.9214 30.7243 21.9214ZM32.4315 30.3792C32.4315 31.2098 31.6612 31.9837 30.7243 31.9837C29.7826 31.9837 29.017 31.2098 29.017 30.3792V26.0951C29.017 25.151 29.7826 24.3929 30.7243 24.3929C31.6612 24.3929 32.4315 25.151 32.4315 26.0951V30.3792Z" fill="white"/>
</g>
<defs>
<clipPath id="clip0_436_2023">
<rect width="40" height="40" fill="white"/>
</clipPath>
</defs>
</svg>
