<svg width="40" height="40" viewBox="0 0 40 40" fill="none" xmlns="http://www.w3.org/2000/svg">
<g clip-path="url(#clip0_436_2101)">
<path d="M0.501953 19.8472C0.501953 9.20579 9.14924 0.578369 19.8175 0.578369C30.4849 0.578369 39.1325 9.20579 39.1325 19.8472C39.1325 30.4895 30.4849 39.116 19.8175 39.116C9.14924 39.116 0.501953 30.4892 0.501953 19.8472" fill="#282828"/>
<path d="M1.07141 19.8474C1.07141 9.5198 9.46386 1.14722 19.8173 1.14722C30.17 1.14722 38.5631 9.5198 38.5631 19.8474C38.5631 30.1753 30.17 38.5481 19.8173 38.5481C9.46386 38.5478 1.07141 30.1753 1.07141 19.8474Z" fill="white"/>
<path d="M1.68201 19.8473C1.68201 9.85611 9.80136 1.75659 19.8176 1.75659C29.8331 1.75659 37.9525 9.85611 37.9525 19.8473C37.9525 29.8391 29.8328 37.9386 19.8176 37.9386C9.80105 37.9386 1.68201 29.8391 1.68201 19.8473" fill="#282828"/>
<path d="M8.6073 19.771C8.6073 13.6175 13.6073 8.62947 19.775 8.62947C25.9427 8.62947 30.9425 13.6175 30.9425 19.771C30.9425 25.9235 25.9427 30.9113 19.775 30.9113C13.6073 30.9113 8.6073 25.9235 8.6073 19.771ZM21.5409 3.34954C21.8468 3.62322 21.9335 3.98339 21.9177 4.38279C21.8314 4.66512 21.6747 4.9388 21.4229 5.13495C21.7295 5.36168 22.0357 5.59705 22.0825 6.00387C22.1692 6.40327 22.0509 6.76313 21.8233 7.0609C21.3449 7.60085 20.5835 7.46031 19.8924 7.48316L18.0677 7.53104L18.0553 7.36547L17.8677 3.23185L17.8599 3.14165C19.0607 3.13393 20.4733 2.82411 21.5409 3.34954ZM24.9401 3.93242C24.6178 4.86034 24.1945 5.77683 23.966 6.75541C23.9531 6.88187 23.9866 7.00871 24.0603 7.11242C24.1339 7.21614 24.2428 7.28969 24.3667 7.31945C24.5596 7.4254 24.8339 7.44517 24.9788 7.31945C25.5993 6.45053 25.8938 5.36971 26.2827 4.39453C26.7769 4.5672 27.1621 4.8137 27.6411 4.99378C27.1302 6.07461 26.8162 7.34725 26.1096 8.23563C25.5997 8.68198 24.7912 8.57202 24.1793 8.42313C23.4805 8.17292 22.7191 7.72688 22.5073 6.94352C22.3429 6.40728 23.0885 4.56689 23.4963 3.46723L24.9401 3.93242Z" fill="white"/>
<path d="M13.6288 9.082L12.5924 9.76249C12.2057 9.55924 11.9799 9.42209 11.6975 9.29297L10.5503 10.2564C10.6683 10.5387 10.8188 10.8829 10.9442 11.1961L9.9196 12.3387L9.83724 12.1586L8.02368 7.86001L9.67994 6.43848L9.81339 6.52096C11.1129 7.31235 12.4484 8.24551 13.7647 8.99273L13.6288 9.082ZM13.8876 8.92446C13.3436 7.60085 12.6772 6.05484 12.1843 4.81339C13.4328 4.31205 15.2383 3.07895 16.3523 4.22649C16.6347 4.53971 16.6741 4.97803 16.6818 5.37743C16.6118 5.63536 16.548 5.89452 16.3759 6.1058C16.7484 6.56328 17.4401 7.08253 17.9185 7.5366L17.8597 7.55637L16.4468 7.86743C15.9442 7.46432 15.6597 7.17983 15.2225 6.88082C15.0339 6.90368 14.9042 7.01395 14.7271 7.0921L15.2138 8.20443L13.8876 8.92446Z" fill="white"/>
<path d="M20.3167 4.07755C20.4263 4.19431 20.4034 4.43772 20.3396 4.57085C20.1362 4.80623 19.7593 4.79758 19.4454 4.75835C19.4683 4.49239 19.3698 4.23385 19.3896 3.96017C19.6565 3.99909 20.1204 3.86565 20.3167 4.07755ZM15.1361 5.15775C15.2138 5.35359 15.2185 5.67237 15.0513 5.78852L14.2744 6.11718C14.0806 5.76164 13.9982 5.51792 13.8647 5.2288C14.2255 5.09566 14.8451 4.55541 15.1361 5.15775ZM20.5755 5.86265C20.6378 6.13726 20.513 6.41897 20.2458 6.47395C19.9947 6.51256 19.8067 6.4894 19.5395 6.49712C19.5002 6.21479 19.4773 5.83917 19.5002 5.60411C19.8609 5.65106 20.4034 5.45553 20.5755 5.86265Z" fill="#282828"/>
<path d="M31.1717 7.39022C31.4389 7.71888 31.6201 8.12601 31.7374 8.54085C31.4076 8.71754 31.1565 8.91739 30.8422 9.05794C30.7645 8.57236 30.4973 8.07905 30.0186 7.83657C29.791 7.70313 29.4529 7.67965 29.1943 7.76584C28.7937 7.91441 28.4487 8.25914 28.2995 8.65854C28.166 9.04219 28.315 9.4178 28.5354 9.71527C28.841 10.06 29.2501 10.2407 29.7117 10.2561C29.5043 10.5965 29.391 10.8115 29.1943 11.0784C28.4246 10.9685 27.7028 10.5456 27.2634 9.83296C26.8866 9.2303 26.8634 8.3064 27.1931 7.67193C27.5381 6.97476 28.2215 6.5284 28.9584 6.42647C29.8458 6.39527 30.6462 6.74772 31.1717 7.39022Z" fill="white"/>
<path d="M10.7792 8.70532C10.5573 8.90935 10.3214 9.09762 10.0732 9.26874C9.88464 8.82239 9.70381 8.42299 9.50781 7.92969C9.95865 8.16908 10.3547 8.44647 10.7792 8.70532Z" fill="#282828"/>
<path d="M33.5273 10.1619C33.1666 10.5221 32.6879 10.8279 32.3024 11.1723C32.9152 11.3051 33.6054 11.2816 34.2336 11.3836C34.5163 11.7913 34.6652 12.1827 34.9402 12.6757L32.6325 12.5117C32.1222 13.3102 31.6593 14.1244 31.2193 14.9544C30.9449 14.555 30.7335 14.0388 30.4659 13.5925C30.7647 12.9892 31.1527 12.351 31.4518 11.7478C30.9378 12.0653 30.4864 12.4761 29.9631 12.8048L29.1478 11.7122C30.2464 10.7726 31.4317 9.93487 32.5857 9.08201L32.6792 9.04834L33.5273 10.1619ZM7.61582 9.87247C7.40743 10.3031 7.13278 10.5965 6.94112 11.0077L9.62537 12.7693C9.48387 13.1684 9.17795 13.5607 8.91847 13.9437L6.16361 12.2287C5.91652 12.5537 5.73941 12.8867 5.49201 13.3018C5.13097 13.0633 4.87582 12.9064 4.58569 12.6995C5.26907 11.563 5.91652 10.4986 6.66987 9.31955L7.61582 9.87247Z" fill="white"/>
<path d="M15.1679 20.3458C15.1727 20.5314 15.1538 20.7169 15.1116 20.8978C14.6957 21.7358 14.021 22.4713 13.9114 23.4353C13.4327 23.7399 13.0395 24.2727 12.357 24.093C12.3332 24.2727 12.3883 24.5461 12.4508 24.75C11.9096 24.7271 11.5402 25.1259 11.0847 25.314C10.8417 25.2362 10.7788 24.9223 10.685 24.7033C11.2182 24.5236 11.6027 23.9907 12.2152 23.9994C12.2861 23.8026 12.1756 23.6228 12.1443 23.4353C11.3826 23.098 10.1741 25.1027 10.0725 23.3646C10.8336 23.3176 11.3204 22.6127 12.0743 22.5423L12.0972 21.9783C11.2417 21.8921 10.6921 22.7694 9.83688 22.6829L9.648 21.9316C10.637 21.9937 11.2262 21.1094 12.1681 21.0618C12.2932 20.8978 12.309 20.6547 12.3332 20.4276C11.3049 20.2942 10.5986 21.4303 9.50742 21.0853C9.50742 21.0853 9.47027 20.6123 9.44983 20.3455H15.1679" fill="#282828"/>
<path d="M16.3744 20.3457C16.409 20.7627 16.3069 21.1788 15.913 21.6029C15.3476 22.2676 14.7751 23.1057 15.1832 23.9993C15.6151 24.985 16.9729 25.7526 16.384 26.982C16.0626 27.7573 15.2928 28.3448 15.3244 29.2607C15.1206 29.1745 14.9092 29.088 14.7361 28.932C14.7361 27.7653 16.3994 27.037 15.6068 25.8076C15.5368 26.0501 15.521 26.379 15.4659 26.6533C15.1906 27.3659 14.6023 27.9371 14.3822 28.6744C14.014 28.5326 13.6288 28.2352 13.3226 27.922L13.7471 27.6631C13.7 27.5062 13.574 27.3734 13.4641 27.2402C13.1888 27.2016 13.0086 27.3814 12.7813 27.4521C12.585 27.2795 12.3961 27.1228 12.2398 26.9116C12.3806 26.5115 13.4799 26.8414 12.9222 26.1835C12.5457 25.9487 12.1692 26.2854 11.8394 26.4424L11.392 25.8783C11.7765 25.6435 12.1608 25.3143 12.6392 25.4085C12.7572 25.6204 12.7655 25.9327 12.9928 26.0433C13.8013 26.0275 14.3744 25.4165 14.9943 24.9387C14.562 24.2974 14.2097 23.4118 14.5936 22.6365C14.9011 21.8593 15.7031 21.2054 15.7393 20.3463H16.3744" fill="#282828"/>
<path d="M17.5246 20.3457C17.5649 20.704 17.5057 21.0716 17.2549 21.4611C16.7453 22.1512 16.078 22.8783 16.3836 23.7868C16.6741 24.7033 17.8203 25.259 17.7497 26.3244C17.742 27.5846 16.2737 28.3683 16.6898 29.7778L15.96 29.5424C15.6699 28.2898 17.0041 27.648 17.0196 26.489C17.2082 25.157 15.5039 24.6634 15.6061 23.3645C15.599 22.3776 16.47 21.7512 16.8546 20.9212C16.9163 20.7359 16.9432 20.5408 16.9338 20.3457H17.5246" fill="#282828"/>
<path d="M21.5599 20.3458C21.511 20.6729 21.5706 21.007 21.7296 21.2972C22.2396 22.1031 23.1347 22.9575 22.5764 23.9994C21.9884 24.8596 21.0072 25.6983 21.3992 26.8174C21.8311 27.7966 22.7337 28.7282 22.2467 29.9425L21.5172 30.1065C22.0977 28.9235 21.227 27.75 20.7171 26.7238C20.0965 25.2516 22.051 24.5458 22.0823 23.2C22.0748 22.3313 21.1484 21.8377 20.9527 21.0389C20.552 20.7016 20.1359 21.1724 19.6569 21.0853C19.3036 21.1563 18.762 20.5997 18.5505 21.2029C18.2991 22.0873 17.1525 22.7378 17.6557 23.7869C18.1347 24.7191 19.2878 25.4002 18.9029 26.6067C18.558 27.7336 17.4197 28.807 18.126 30.1065C17.8356 30.0129 17.2937 30.1927 17.3017 29.7306C16.8543 28.1565 18.762 27.2403 18.1728 25.6668C17.8984 24.7033 16.65 24.1705 16.9249 23.0115C17.128 22.0577 18.1997 21.3904 18.0492 20.3455H21.5599" fill="#282828"/>
<path d="M22.6946 20.3457C22.6795 20.6135 22.7336 20.8798 22.9067 21.1325C23.4486 22.0097 24.3905 22.9732 23.849 24.1164C23.2368 25.0322 22.1692 25.9642 22.7652 27.1704C23.1972 27.8908 23.8648 28.6105 23.6845 29.4961L22.9776 29.7308C23.4486 28.0789 21.1406 27.1071 22.1066 25.4551C22.7033 24.5701 23.7703 23.7398 23.1665 22.5654C22.8055 21.838 22.0596 21.4071 22.0828 20.498L22.1082 20.346H22.6946" fill="#282828"/>
<path d="M23.8639 20.3458C23.8601 20.5803 23.9199 20.8115 24.037 21.0148C24.5472 21.9319 25.4659 22.8006 25.1207 23.9512C25.0256 24.3043 24.7442 24.5785 24.6733 24.9381C25.2706 25.4317 25.8353 25.9871 26.6277 26.0186C26.9101 25.8388 26.7531 25.04 27.334 25.4079L28.1815 25.8314C28.1195 26.0582 27.9304 26.2623 27.7582 26.4183C27.4365 26.262 27.1225 26.0739 26.7215 26.089C26.6032 26.2145 26.5011 26.3556 26.51 26.5354C26.7924 26.5817 27.0507 26.6994 27.2866 26.8641C27.177 27.0994 26.9646 27.2477 26.7683 27.4281L26.1091 27.1927C25.9994 27.3496 25.7709 27.5143 25.8508 27.6863C25.9994 27.7497 26.1648 27.8352 26.2741 27.9452C25.9837 28.2584 25.6152 28.461 25.2613 28.6739C24.956 27.6789 23.9503 26.9814 24.0366 25.8311L23.9902 25.7842C23.7543 26.0495 23.8335 26.473 23.849 26.8171C24.1317 27.5374 24.8067 28.0944 24.9089 28.8845C24.7909 29.0878 24.524 29.127 24.3197 29.2132C24.3435 27.7883 22.1773 26.7084 23.5666 25.2671C24.0298 24.5613 24.8067 23.8885 24.5314 22.9173C24.2491 21.9792 23.2489 21.3969 23.2576 20.3455H23.8639" fill="#282828"/>
<path d="M30.1371 20.3458C30.1448 20.6105 30.1693 20.8381 30.0656 21.1097C28.9902 21.4149 28.2839 20.2794 27.2404 20.4508L27.3578 21.0389C28.3232 21.0704 28.9276 21.994 29.9247 21.9542C29.7832 22.2365 29.9875 22.9803 29.3599 22.6829C28.7084 22.5266 28.2372 21.9542 27.5228 21.9542C27.4367 22.1117 27.4912 22.3313 27.4761 22.5182C28.2294 22.6359 28.771 23.2707 29.524 23.3881C29.4531 23.6463 29.3825 23.9351 29.1707 24.0927C28.5579 23.9438 28.0796 23.3952 27.4275 23.4109L27.3107 23.9509C27.9306 23.9666 28.3313 24.5149 28.8883 24.6789C28.9035 24.9069 28.7001 25.1102 28.5824 25.3137C28.0882 25.1654 27.7111 24.7423 27.146 24.7738C27.1379 24.5613 27.2637 24.3194 27.216 24.0927C26.5812 24.2808 26.1564 23.6933 25.6864 23.3402C25.6727 22.1855 24.4543 21.4272 24.3899 20.3455H30.1371" fill="#282828"/>
<path d="M9.45012 20.3459C9.44269 20.2415 9.43681 20.1692 9.43681 20.1692C10.4103 20.5458 11.2652 19.8486 12.0975 19.4887C12.3093 19.4254 12.6388 19.5354 12.7338 19.3006C12.7255 19.1205 13.0552 18.9089 12.7809 18.7835C11.5637 18.6189 10.7556 20.0837 9.50771 19.418L9.41296 19.2299C9.67244 15.6909 11.6739 12.2689 14.9939 10.5852C17.9612 8.89334 22.5141 9.03482 25.3083 11.008C26.7924 11.9162 28.2127 13.4122 28.9828 14.9316C29.7197 16.2626 30.0578 17.7577 30.1591 19.3476C28.8716 20.3184 28.0083 18.432 26.697 18.8543C26.7679 19.0581 26.8072 19.2694 26.9571 19.4418C28.1192 19.4337 28.9193 20.6477 30.1358 20.1692L30.1368 20.3459H24.3896C24.3773 20.109 24.4179 19.8724 24.5085 19.6531C24.9088 18.7292 24.7828 17.5303 24.3434 16.6688C24.21 16.4421 23.9747 16.2623 23.7545 16.1289C24.0768 16.8106 24.4688 17.6168 24.2728 18.4546C24.2502 19.1014 23.8684 19.7223 23.8641 20.3459H23.2578L23.2603 20.2637C23.4876 19.1672 24.1793 18.0002 23.6139 16.8335C23.4566 16.364 23.1043 15.8314 22.6252 15.6356C23.3393 16.4504 23.6217 17.7812 23.2133 18.878C23.0073 19.3142 22.7234 19.8328 22.6952 20.3456H22.1082C22.3512 19.056 23.3349 17.8358 22.6479 16.4575C22.4673 16.0504 22.1066 15.6356 21.7062 15.4002L21.6821 15.4243C22.4831 16.1996 22.7262 17.4763 22.2946 18.5015C22.0927 19.1029 21.6502 19.7009 21.5604 20.3456H18.0494C18.0363 20.2538 18.0148 20.1633 17.9853 20.0753C17.585 18.9475 16.7681 17.8204 17.2549 16.5042C17.3886 16.1283 17.6559 15.807 17.8906 15.4709C17.1134 15.8858 16.7211 16.763 16.7369 17.6558C16.7031 18.626 17.4224 19.4575 17.5246 20.3456H16.9341C16.887 19.4276 16.0581 18.7112 16.1956 17.6792C16.242 16.9197 16.5009 16.2537 16.9954 15.6825C16.313 15.9562 16.0306 16.7396 15.842 17.3972C15.5147 18.4521 16.2959 19.4004 16.3743 20.3456H15.7392C15.7468 20.1326 15.7098 19.9204 15.6305 19.7226C15.2069 18.6343 15.0574 17.1628 15.8658 16.1993C15.4261 16.317 15.1673 16.8644 15.018 17.2795C14.5319 18.3421 15.1469 19.3269 15.1679 20.3456H9.45012" fill="#282828"/>
<path d="M20.3396 11.2659L21.6116 11.3367L21.588 11.4544L20.6461 12.3471C20.8105 12.7468 20.9756 13.1462 21.1406 13.5447C21.8549 13.1304 22.5383 12.6133 23.4016 12.558C23.3229 13.0127 22.9777 13.4906 23.0241 13.9441C23.5583 13.7955 24.0456 13.4668 24.6265 13.4977C24.2649 14.1637 23.7388 14.8297 23.7072 15.6593C22.9145 15.3625 22.098 15.0014 21.2115 14.8609C19.3196 14.5393 17.498 14.9545 15.9356 15.7066C15.8024 14.9158 15.4182 14.2264 14.9469 13.5688C15.2293 13.4748 15.5745 13.6308 15.8656 13.7102C16.109 13.78 16.313 13.9444 16.5722 13.9919C16.6186 13.5221 16.3446 13.06 16.1486 12.6291C16.2821 12.5272 16.4939 12.605 16.6431 12.6529C17.2627 12.8873 17.8203 13.2552 18.3857 13.5925C18.6759 13.2552 18.7852 12.7696 18.9032 12.3233L17.9383 11.4544V11.3608L19.2097 11.2897C19.4212 10.8906 19.5627 10.4678 19.7748 10.0684C20.034 10.4208 20.1203 10.8829 20.3396 11.2659Z" fill="white"/>
<path d="M20.7869 13.8267L20.6699 13.944C20.0809 13.8816 19.461 13.9595 18.9031 13.9681C18.8405 13.9054 18.7154 13.8112 18.8322 13.7328L19.7273 13.051C20.0967 13.2635 20.4887 13.5372 20.7869 13.8267" fill="#282828"/>
<path d="M5.08022 14.1553C4.59315 14.5319 4.24791 15.0801 4.3504 15.7063C4.40551 15.8002 4.46001 15.9407 4.58572 15.9642C4.97803 15.9642 5.11149 15.5419 5.2917 15.2831C5.5038 14.8133 5.91252 14.3039 6.46956 14.2495C6.94827 14.2186 7.3573 14.3434 7.67096 14.7194C8.14966 15.2914 8.06327 16.2153 7.836 16.8813C7.62328 17.3746 7.29382 17.875 6.82317 18.1966L5.97507 17.6795C6.43829 17.3592 6.92535 16.8337 6.9879 16.2465C6.9879 16.0352 6.94145 15.7532 6.68136 15.7294C6.14011 15.8864 6.0853 16.536 5.71652 16.9042C5.43413 17.1942 5.08052 17.4129 4.63279 17.3502C4.21663 17.3264 3.86303 17.0685 3.61996 16.7395C3.15674 16.0352 3.38432 15.0008 3.66702 14.4611C3.84011 14.1553 4.04447 13.8501 4.32686 13.6147C4.56188 13.7485 4.83715 13.9524 5.08022 14.1553ZM35.8351 14.7672C36.2429 15.4246 36.4008 16.2935 36.1884 17.0926L35.3171 17.0456C35.4353 16.5208 35.5214 15.8632 35.1523 15.4246C35.0427 15.2914 34.8464 15.2127 34.7049 15.2834C34.2262 15.8159 34.7452 16.5838 34.4467 17.1865C34.3048 17.4611 34.0931 17.7898 33.7868 17.9142C33.2917 18.1024 32.6796 18.0085 32.3027 17.6325C31.5655 16.8649 31.2196 15.6745 31.6912 14.6724H32.6093C32.4523 15.0647 32.3433 15.6201 32.4919 16.0822C32.5699 16.278 32.6644 16.5285 32.8926 16.599C33.6459 16.6262 33.1353 15.5497 33.3159 15.048C33.3868 14.6724 33.5905 14.281 33.9748 14.1084C34.6811 13.7639 35.5059 14.1553 35.8351 14.7672ZM12.7339 16.2465C13.495 15.9565 14.531 15.4558 15.3475 15.9883C15.1744 16.2308 14.8379 16.3642 14.5936 16.5752C14.1938 16.9666 13.7071 17.4438 13.4169 17.9374C12.4357 17.7413 11.6501 18.314 10.8262 18.6426C10.5122 18.7047 10.0961 18.7362 9.8372 18.5249C10.6144 17.248 11.7127 16.0735 11.4383 14.3901C11.5247 14.2412 11.6737 14.3669 11.7678 14.4139C12.3728 14.8837 12.663 15.5339 12.7339 16.2465ZM28.2288 14.5785C27.9232 16.1758 29.0215 17.3039 29.7594 18.5252C28.9122 19.0893 28.1105 18.2194 27.3104 18.0082C26.9571 17.9538 26.5416 17.9062 26.2032 17.9612C25.7173 17.21 25.0655 16.5048 24.2726 16.0822C24.3193 15.8243 24.6803 15.8076 24.9321 15.7764C25.6306 15.7066 26.2428 15.996 26.8159 16.2938C26.9258 16.0359 26.9729 15.7455 27.0509 15.4718C27.2401 15.0097 27.6095 14.5393 28.0882 14.344C28.1898 14.3595 28.2604 14.4695 28.2288 14.5785ZM21.6818 16.0356C21.706 16.1684 21.8391 16.2861 21.7527 16.435C21.2895 16.2935 20.764 16.3716 20.3163 16.5517C19.9156 16.8492 19.9785 17.4608 20.0807 17.8908L20.1986 17.9853C20.3946 17.938 20.403 17.6878 20.5752 17.6325C20.8659 17.7033 21.266 17.8055 21.5406 17.6325C21.7837 17.6406 21.7766 17.977 21.7995 18.1496C21.627 19.0581 21.2424 20.0447 20.3163 20.4753C19.9314 20.6634 19.4366 20.5374 19.0678 20.4046C18.1575 19.8643 17.6472 18.7915 17.7494 17.821C17.8203 17.6721 17.9302 17.5544 18.1033 17.6563C18.4712 17.9065 18.8715 17.4608 19.2097 17.7731C19.6174 17.593 19.3744 17.0926 19.3744 16.7167C19.0449 16.2935 18.4795 16.3559 17.9853 16.3874C17.7652 16.2539 18.0011 16.043 18.0553 15.8941C18.5894 15.1425 19.6103 15.1271 20.5042 15.2364C20.96 15.3538 21.4626 15.5497 21.6818 16.0356Z" fill="white"/>
<path d="M18.9502 17.1157V17.2102C18.6836 17.1864 18.2522 16.9201 18.0086 17.2568C17.8519 17.3266 17.8283 17.1466 17.8441 17.0452C17.8365 17.0205 17.8342 16.9945 17.8373 16.9688C17.8404 16.9432 17.8489 16.9185 17.8623 16.8963C17.8756 16.8741 17.8935 16.855 17.9148 16.8403C17.936 16.8255 17.9602 16.8153 17.9856 16.8105C18.3538 16.7243 18.77 16.8336 18.9502 17.1157ZM21.7527 16.998C21.7453 17.0925 21.7685 17.2018 21.6586 17.2568C21.3601 17.1394 20.9439 16.9748 20.6458 17.2102C20.4727 16.842 20.9523 16.9201 21.1167 16.8108C21.3604 16.8021 21.6431 16.795 21.7527 16.998Z" fill="white"/>
<path d="M20.2454 18.5016C20.1045 18.7991 19.649 18.6113 19.3976 18.6657C19.3121 18.6342 19.366 18.5409 19.3505 18.4782C19.6019 18.3055 20.0494 18.2826 20.2454 18.5016ZM20.6219 19.1599C20.4346 19.4416 20.1516 19.7934 19.775 19.7709C19.3505 19.8021 19.2567 19.4574 18.9502 19.2538L18.9272 19.112C19.4926 19.1985 20.1125 19.0895 20.6219 19.1599Z" fill="#282828"/>
<path d="M5.95131 22.8244C6.42692 22.8219 6.88333 22.8401 7.37441 22.8287L6.2817 23.7403C6.38698 24.1239 6.47801 24.565 6.61115 25.0796L5.52773 24.3278C5.07225 24.5354 4.79791 24.7899 4.32726 25.0324L4.70378 23.7399C4.34615 23.448 3.9464 23.171 3.60828 22.8735C4.10122 22.8608 4.53286 22.8806 5.00939 22.871C5.22954 22.4602 5.3277 21.9894 5.52773 21.5786L5.95131 22.8244ZM11.5326 29.0029C11.6273 29.2296 11.7639 29.4094 11.8221 29.7498C11.5713 29.9073 11.2542 30.0365 10.9675 30.1776C10.8975 29.6605 10.4417 29.1592 9.93172 29.0257C9.50813 28.9207 9.04491 29.1206 8.73125 29.4962C8.47177 29.8008 8.39313 30.24 8.47177 30.6237C8.67613 31.1553 9.24123 31.5568 9.81406 31.5568L9.97879 31.5618C9.8602 31.8549 9.71867 32.1384 9.55551 32.4094C8.60523 32.3773 7.64782 31.8212 7.29422 30.9048C6.98829 30.1616 7.12206 29.1981 7.60076 28.5791C8.18164 27.8436 9.10808 27.6397 10.0029 27.8279C10.6061 27.9928 11.1715 28.4466 11.5326 29.0029ZM29.8294 28.5099L29.8889 28.568L28.476 29.8801L28.9469 30.4473C29.347 30.1341 29.7793 29.8011 30.2069 29.4023C30.4267 29.5864 30.6038 29.8011 30.8113 30.0448C30.388 30.4473 29.9477 30.7216 29.5792 31.1055C29.7362 31.3017 29.8573 31.5241 30.0966 31.7595L31.6201 30.5063L32.2709 31.176C31.4076 31.9939 30.466 32.8363 29.5712 33.4896L26.9098 30.0596C27.7579 29.3544 28.472 28.7125 29.2179 27.9684C29.4458 28.1179 29.6108 28.3131 29.8294 28.5099ZM14.8531 31.3993C15.3318 32.01 15.3396 32.957 15.0411 33.6539C14.7082 34.3628 14.0682 34.8135 13.3693 34.9698C12.5225 35.1026 11.7214 34.8293 11.109 34.2424C10.5677 33.6468 10.2692 32.7933 10.5436 31.9636C10.7869 31.0629 11.666 30.4053 12.5692 30.2956C13.5028 30.2403 14.3664 30.6709 14.8531 31.3993Z" fill="white"/>
<path d="M13.8643 31.9632C14.1303 32.5816 13.8244 33.1923 13.3928 33.6306C13.1184 33.8496 12.7589 33.9877 12.3982 33.8546C12.1709 33.7449 11.8901 33.5444 11.8272 33.3013C11.6541 32.6752 11.9412 32.088 12.3802 31.6574C12.6472 31.4378 13.032 31.313 13.3689 31.4693C13.5733 31.5317 13.8009 31.7593 13.8643 31.9632" fill="#282828"/>
<path d="M23.2368 32.9571C22.5764 33.052 21.9457 33.1304 21.3168 33.2324C21.3803 33.5413 21.3521 33.7482 21.3995 33.9836C21.9884 33.9722 22.5027 33.8678 23.0523 33.797L23.213 34.8016C22.6538 34.9053 22.0906 34.9864 21.5249 35.0447C21.5406 35.4984 21.601 36.0541 21.5939 36.5555C21.131 36.6262 20.6312 36.6769 20.1522 36.6453L19.8698 32.3625L19.8661 32.2726C20.923 32.1721 21.9763 32.0374 23.0244 31.8689C23.0681 32.1902 23.1663 32.5611 23.2368 32.9571ZM26.8383 31.0318L26.8779 31.1053L25.1535 31.9681L25.4455 32.6442C25.9716 32.4441 26.4258 32.2575 26.9485 31.994C27.108 32.2328 27.2173 32.4882 27.3485 32.7795C26.8745 33.0316 26.3837 33.2271 25.8669 33.4535C25.9629 33.6852 26.0112 33.8542 26.18 34.2258L27.9948 33.4492L28.4317 34.2752C27.3727 34.8182 26.232 35.3625 25.1885 35.7394L23.5991 31.7027C24.6113 31.2635 25.478 30.8468 26.4026 30.3424C26.58 30.5487 26.6831 30.7828 26.8383 31.0318ZM19.2224 33.444C18.5656 33.3343 17.9389 33.2172 17.3101 33.123C17.2751 33.4369 17.1862 33.6262 17.1599 33.8638C17.7243 34.0315 18.2458 34.0883 18.7907 34.1878L18.6375 35.1948C18.0729 35.1236 17.5115 35.0296 16.9546 34.9131C16.8314 35.3498 16.7205 35.8981 16.561 36.3738C16.0978 36.3003 15.6058 36.1965 15.1593 36.0208L16.1954 31.8556L16.2198 31.7695C17.2639 31.9946 18.3334 32.1911 19.3518 32.3431C19.2948 32.6622 19.275 33.0464 19.2224 33.444ZM34.4832 22.831C34.9579 22.8291 35.3821 22.8418 35.9054 22.8359L34.8136 23.7475C34.9198 24.1305 35.0099 24.5716 35.1425 25.0868L34.06 24.3344C33.6036 24.5413 33.3295 24.7965 32.8586 25.039L33.2354 23.7472C32.8781 23.4559 32.4774 23.1776 32.1411 22.8801C32.6328 22.8674 33.0648 22.8872 33.541 22.8776C33.7333 22.4498 33.8708 22.039 34.06 21.5852L34.4832 22.831Z" fill="white"/>
<path d="M32.5595 36.04C33.1732 36.04 33.6993 36.516 33.6993 37.1619C33.6993 37.8137 33.1735 38.2894 32.5595 38.2894C31.9396 38.2894 31.4138 37.8137 31.4138 37.1619C31.4138 36.516 31.9396 36.04 32.5595 36.04ZM32.5595 36.222C32.0368 36.222 31.6327 36.6254 31.6327 37.1619C31.6327 37.7105 32.0371 38.1078 32.5595 38.1078C33.0763 38.1078 33.4803 37.7108 33.4803 37.1619C33.48 36.6254 33.0763 36.222 32.5595 36.222ZM32.3192 37.8137H32.1189V36.516H32.6171C32.927 36.516 33.0791 36.6313 33.0791 36.8858C33.0791 37.1193 32.9329 37.2194 32.7385 37.2435L33.1091 37.8137H32.8905L32.544 37.2497H32.3189V37.8137H32.3192ZM32.3192 37.0863H32.5564C32.7995 37.0863 32.8784 37.0161 32.8784 36.8737C32.8784 36.7496 32.8177 36.6798 32.5898 36.6798H32.3192V37.0863V37.0863Z" fill="#282828"/>
</g>
<defs>
<clipPath id="clip0_436_2101">
<rect width="39.4709" height="40" fill="white"/>
</clipPath>
</defs>
</svg>
