<svg width="40" height="21" viewBox="0 0 40 21" fill="none" xmlns="http://www.w3.org/2000/svg">
<g clip-path="url(#clip0_436_1991)">
<path d="M4.00679 4.58577C2.24839 3.94127 1.31537 3.08192 0.848853 2.25838C0.418226 1.47065 0.489997 0.539688 1.06417 0.43227C1.67422 0.289045 2.14074 0.826137 2.35605 1.29162C2.49959 0.575494 2.93022 0.539688 3.10965 0.575494C3.43262 0.682912 3.68382 1.04097 3.61204 1.93612C3.50439 2.68805 3.32496 3.36837 4.00679 4.58577Z" fill="#282828"/>
<path d="M17.3562 8.45274L17.428 7.91565C16.6385 5.73148 13.4088 4.69311 10.2508 5.44503C10.825 4.80052 10.825 3.86957 10.3944 3.33248C10.1432 3.04603 9.38958 2.83119 8.45655 3.18925C7.5953 3.4757 7.16467 4.44246 7.52353 5.19439C7.5953 5.40923 7.73884 5.58826 7.91827 5.73148C5.37039 5.65987 1.13589 4.54988 0.0234355 2.04346C0.0234355 2.04346 -0.0483357 2.2941 0.0593211 2.83119C0.669376 6.26857 5.8369 8.56016 7.63118 9.92079C8.06181 10.243 8.13358 10.8159 7.99004 11.3172C7.99004 11.353 7.95415 11.3888 7.95415 11.4246C7.88238 11.5679 7.8465 11.6753 7.73884 11.7827C7.48764 12.1766 7.16467 12.5346 6.76993 12.8927C5.40628 14.2175 2.67897 15.5065 0.0593211 20.591C0.0593211 20.591 7.77473 19.5526 10.0355 13.7162C9.85609 17.7265 13.3729 19.0513 13.3729 19.0513C16.1361 14.4324 12.2963 12.1766 11.9016 10.7085C11.1839 8.1663 13.337 5.44503 17.3562 8.45274" fill="#282828"/>
<path d="M37.5598 5.87483V5.1229H36.2321V6.37611H37.0574C37.3445 6.37611 37.5598 6.16127 37.5598 5.87483M35.1196 5.1229H33.8995V6.37611H35.1196V5.1229ZM32.6435 11.1025H36.3756C36.8062 11.1025 37.0574 10.8877 37.0574 10.6012H31.9617C31.9617 10.8877 32.2129 11.1025 32.6435 11.1025ZM32.177 6.37611H32.787V5.1229H31.6746V5.87483C31.6746 6.16127 31.8899 6.37611 32.177 6.37611ZM39.1029 6.23289C39.1029 6.66256 38.7799 7.02062 38.3493 7.02062H30.7416C30.3109 7.02062 29.988 6.66256 29.988 6.23289V4.44258H39.1029V6.23289ZM38.7082 10.3506C38.7082 11.1025 38.134 11.747 37.3445 11.8544C37.4522 11.9977 37.8469 12.5348 38.2775 12.857H36.6627C36.3397 12.678 35.9091 12.3199 35.622 11.8544H33.3971C33.1459 12.3557 32.6435 12.678 32.3564 12.857H30.7416C31.1722 12.5348 31.5311 11.9977 31.6387 11.8544C30.8851 11.7828 30.2751 11.1383 30.2751 10.3506V7.41449H38.7082V10.3506ZM29.1985 8.20222H27.6195V6.73417H21.5907V7.05643H22.775C22.9185 8.059 23.1338 8.56028 23.8156 8.56028H24.1386L23.6721 7.09223H24.7846L25.2152 8.56028H26.1841L25.7176 7.09223H26.7942L27.2607 8.56028H28.4808L28.1578 9.31221L23.3132 9.34801C22.5597 9.34801 22.3085 9.2406 21.9496 8.56028C21.8061 9.09737 21.5907 9.52705 21.4831 9.77769H28.6243C28.4449 10.8161 27.4401 11.6754 26.2918 12.0335C27.0812 12.1767 27.9066 12.2483 28.7679 12.2841L28.4808 12.8928C27.153 12.8928 25.8252 12.7854 24.6051 12.5348C23.3491 12.7854 21.9855 12.8928 20.6577 12.8928V12.2841C21.4472 12.2483 22.2367 12.1767 22.9903 12.0335C22.0931 11.7112 21.4831 11.1025 21.0525 10.458L20.9089 10.2432H20.0477C20.4783 9.63446 20.8013 8.91834 20.9448 8.23803H20.0477V6.05386H21.2678L20.8371 4.40678H20.9089C20.9089 4.40678 25.897 4.40678 28.3013 4.04872C28.3013 4.04872 28.5525 4.87226 28.5884 4.87226C28.4449 4.87226 28.2655 4.90806 28.1219 4.90806L27.799 6.05386H29.1985V8.20222V8.20222ZM19.2223 13.788H40.0001V3.15356H19.2223V13.788ZM22.3443 5.19451L22.5955 6.05386H24.1386L23.8874 5.1587C23.4568 5.19451 22.775 5.19451 22.3443 5.19451M37.0933 9.41963H31.9617V9.92091H37.0933V9.41963ZM26.7583 10.458H22.6314C23.0621 10.9593 23.7798 11.3532 24.7128 11.6396C25.6458 11.3532 26.3994 10.9235 26.7583 10.458M25.3228 6.05386H26.543L26.8659 5.05129C26.3276 5.08709 25.574 5.1229 25.0716 5.1229L25.3228 6.05386ZM37.0933 8.20222H31.9617V8.70351H37.0933V8.20222Z" fill="#282828"/>
<path d="M21.9137 14.7548H23.1697V15.2203C23.2773 15.0412 23.5644 14.6116 24.3898 14.6116C24.7845 14.6116 25.3228 14.719 25.6458 15.3993C25.9329 14.9696 26.3994 14.6116 27.0453 14.6116C27.3683 14.6116 27.8707 14.6832 28.2296 15.0412C28.6243 15.4709 28.6961 15.7574 28.6961 16.7599L28.6602 19.1589H27.3683V16.7957C27.3683 16.4377 27.3683 15.829 26.6865 15.829C25.9688 15.829 25.9688 16.5093 25.9688 16.7599V19.1589H24.641V16.7599C24.641 16.5093 24.641 15.829 23.9951 15.829C23.2415 15.829 23.2415 16.5451 23.2415 16.7957V19.1589H21.9137V14.7548V14.7548Z" fill="#282828"/>
<path d="M34.043 19.1589H32.7152V18.6577C32.4999 19.0873 31.9257 19.3022 31.4233 19.3022C30.0238 19.3022 29.1984 18.1922 29.2343 16.939C29.2343 15.5067 30.275 14.6116 31.4592 14.6116C32.1769 14.6116 32.5716 14.9338 32.7152 15.2203H32.7511V14.7548H34.0788L34.043 19.1589V19.1589ZM31.6386 18.0848C32.464 18.0848 32.7511 17.3686 32.7511 16.939C32.7511 16.4019 32.3922 15.829 31.6386 15.829C30.885 15.829 30.5262 16.4735 30.5262 16.9748C30.5262 17.3686 30.8491 18.0848 31.6386 18.0848Z" fill="#282828"/>
<path d="M20.1552 19.1589H18.8275V18.6577C18.6121 19.0873 18.038 19.3022 17.5356 19.3022C16.136 19.3022 15.3107 18.1922 15.3107 16.939C15.3466 15.5067 16.3872 14.6116 17.5356 14.6116C18.2892 14.6116 18.6839 14.9338 18.8275 15.2203H18.8633V14.7548H20.1552V19.1589V19.1589ZM17.7509 18.0848C18.5763 18.0848 18.8275 17.3686 18.8275 16.939C18.8275 16.4019 18.4686 15.829 17.7509 15.829C16.9973 15.829 16.6384 16.4735 16.6384 16.9748C16.6384 17.3686 16.9255 18.0848 17.7509 18.0848Z" fill="#282828"/>
<path d="M39.2823 14.7548V13.7522H37.9546V14.8264C37.0574 14.898 36.4115 15.1844 35.9808 15.6857V14.7548H34.7249V19.1589H36.0526V17.8699C36.0526 18.1205 36.0167 16.2944 37.9546 16.0438L37.9187 19.1589H39.2464V15.9722H40V14.7548H39.2823Z" fill="#282828"/>
<path d="M21.5907 18.5858C21.5907 18.9081 21.3395 19.1587 21.0166 19.1587C20.6936 19.1587 20.4424 18.9081 20.4424 18.5858C20.4424 18.2636 20.6936 18.0129 21.0166 18.0129C21.3395 18.0129 21.5907 18.2636 21.5907 18.5858V18.5858Z" fill="#282828"/>
</g>
<defs>
<clipPath id="clip0_436_1991">
<rect width="40" height="20.1824" fill="white" transform="translate(0 0.408691)"/>
</clipPath>
</defs>
</svg>
