<svg width="40" height="27" viewBox="0 0 40 27" fill="none" xmlns="http://www.w3.org/2000/svg">
<g clip-path="url(#clip0_431_1117)">
<path d="M40 16.875H36.2273V0.875H40V16.875Z" fill="#282828"/>
<path d="M10.1818 5.42045L8.02272 16.875H5.38636L3.20454 5.42045V16.875H0V0.875H4.81818L6.70454 10.875L8.5909 0.875H13.3864V16.875H10.1818V5.42045Z" fill="#282828"/>
<path d="M25.0682 12.875C25.0682 15.6477 22.8182 17.2386 20.0454 17.2386C17.2954 17.2386 15.0227 15.6477 15.0227 12.875V0.875H18.7954V12.8068C18.7954 13.4886 19.3636 14.0568 20.0454 14.0568C20.7272 14.0568 21.2954 13.5114 21.2954 12.8068V0.875H25.0682V12.875Z" fill="#282828"/>
<path d="M34.5909 13.375C34.5909 15.7841 32.6364 17.2613 30.2046 17.2613C27.7955 17.2613 25.8409 15.7841 25.8409 13.375C25.8409 12.7614 25.8409 11.875 25.8409 11.0341H29.2046V13.375C29.2046 13.8295 29.5682 14.1932 30.0228 14.1932C30.4773 14.1932 30.8409 13.8295 30.8409 13.375V0.875H34.6137L34.5909 13.375Z" fill="#282828"/>
<path d="M10.2045 24.5568H10.9318V23.5113H10.0909V22.7386H11.2045V21.6932H10.0909V20.875H10.8409V19.7841H6.06815C6.15906 19.6704 6.22724 19.5341 6.31815 19.4204L5.20451 18.8977C4.90906 19.3523 4.54542 19.8068 4.09088 20.2386C3.8636 20.4659 3.63633 20.6704 3.40906 20.8522L4.40906 21.5341C4.52269 21.4432 4.63633 21.3522 4.74997 21.2613V21.6932H3.65906V22.7386H4.74997V23.5113H3.97724V24.5568H4.72724C4.45451 25.0795 3.99997 25.7159 3.65906 26.0113L4.6136 26.7386C5.09087 26.2841 5.52269 25.6704 5.8636 24.9432L5.1136 24.5568H9.90905L9.13633 25.0113C9.52269 25.5113 9.95451 26.1477 10.2045 26.6704L11.2727 26.1477C11.0227 25.6704 10.5909 25.0113 10.2045 24.5568ZM8.93178 23.5113H8.63633V22.7386H8.93178V23.5113ZM7.54542 22.7386V23.5113H7.22724V22.7386H7.54542ZM7.24996 21.6932V20.875H7.56814V21.6932C7.54542 21.6932 7.24996 21.6932 7.24996 21.6932ZM8.93178 21.6932H8.63633V20.875H8.93178V21.6932ZM5.8636 20.875H6.15906V21.6932H5.8636V20.875ZM5.8636 22.7386H6.15906V23.5113H5.8636V22.7386Z" fill="#282828"/>
<path d="M6 24.9204C6.15909 25.284 6.43182 26.3068 6.43182 26.625L7.56818 26.375C7.43182 25.6022 7.31818 25.1704 7.04545 24.6704L6 24.9204Z" fill="#282828"/>
<path d="M7.54541 24.9886C7.74996 25.3295 8.11359 26.2613 8.15905 26.625L9.31814 26.3295C9.15905 25.625 8.9545 25.1704 8.65905 24.6704L7.54541 24.9886Z" fill="#282828"/>
<path d="M19.5455 19.9204H16V20.1022L15.25 19.4204C14.6591 19.784 13.7273 20.0795 12.6591 20.2159C12.6364 20.2159 12.6364 20.2159 12.6136 20.2159V26.3522H13.8636V25.9431H15.7955V24.7159H13.8636V23.284H15.7955V22.125H13.8636V21.125C14.7046 20.9659 15.4318 20.7159 15.9773 20.4204V26.7386H17.25V21.1022H18.2727V24.7159H17.4546L17.8864 26.0113H18.5C19.0682 26.0113 19.5455 25.5795 19.5455 25.034C19.5455 24.9204 19.5455 19.9204 19.5455 19.9204Z" fill="#282828"/>
<path d="M26.0909 24.9205C26.1818 24.8296 26.2954 24.7386 26.4091 24.625C26.75 24.2841 27.0454 23.9432 27.2727 23.6023L26.9318 23.2614V19.9659H24.8182V18.9886H23.4545V19.9659H21.2954V25.3523C21.0227 25.4205 20.7727 25.4659 20.5227 25.5114L20.7954 26.7841C20.9318 26.7614 21.0682 26.7159 21.2045 26.6932C22.3636 26.4205 23.4318 26.0796 24.25 25.7614V24.9659C25.0227 25.7841 26.1136 26.4886 27.3182 26.8977L27.9772 25.7841C27.2272 25.5341 26.5909 25.2386 26.0909 24.9205ZM25.5454 22.4432H22.5909V22.1705H25.5454V22.4432ZM25.75 23.5341C25.6591 23.6477 25.5454 23.7841 25.4318 23.8977C25.3409 23.9886 25.25 24.1023 25.1591 24.1932C24.9772 23.9886 24.7954 23.7614 24.6818 23.5341C24.7045 23.5341 25.75 23.5341 25.75 23.5341ZM25.5454 21.0114V21.2841H22.5909V21.0114H25.5454ZM22.6136 25.0341V23.5341H23.25C23.4091 23.8977 23.6363 24.2841 23.9318 24.625C23.5227 24.7614 23.0909 24.8977 22.6136 25.0341Z" fill="#282828"/>
<path d="M34.5908 19.5568H30.1818V22.6931H34.5908V19.5568ZM31.3863 20.6022H33.3636V21.6249H31.3863V20.6022Z" fill="#282828"/>
<path d="M28.75 23.0568V26.7386H29.9773V26.4659H30.9545V26.7386H32.1818V23.0568H28.75ZM29.9773 25.4431V24.1477H30.9545V25.4431H29.9773Z" fill="#282828"/>
<path d="M36 23.0568H32.5454V26.7386H33.7954V26.4659H34.75V26.7386H36V23.0568ZM33.7727 25.4431V24.1477H34.7272V25.4431H33.7727Z" fill="#282828"/>
</g>
<defs>
<clipPath id="clip0_431_1117">
<rect width="40" height="26" fill="white" transform="translate(0 0.875)"/>
</clipPath>
</defs>
</svg>
