<svg width="40" height="32" viewBox="0 0 40 32" fill="none" xmlns="http://www.w3.org/2000/svg">
<path d="M2.3 12H37.7C38.9688 12 40 10.9687 40 9.7C40 9.24375 39.8625 8.8 39.6125 8.425L34.8875 1.3375C34.3313 0.5 33.4 0 32.3937 0H7.60625C6.60625 0 5.66875 0.5 5.1125 1.3375L0.3875 8.41875C0.1375 8.8 0 9.24375 0 9.69375C0 10.9688 1.03125 12 2.3 12ZM4 14V24V29C4 30.6562 5.34375 32 7 32H21C22.6562 32 24 30.6562 24 29V24V14H20V24H8V14H4ZM32 14V30C32 31.1063 32.8937 32 34 32C35.1063 32 36 31.1063 36 30V14H32Z" fill="#282828"/>
</svg>
